<?xml version="1.0" encoding="utf-8" standalone="no"?>
<!DOCTYPE svg PUBLIC "-//W3C//DTD SVG 1.1//EN"
  "http://www.w3.org/Graphics/SVG/1.1/DTD/svg11.dtd">
<svg xmlns:xlink="http://www.w3.org/1999/xlink" width="460.8pt" height="345.6pt" viewBox="0 0 460.8 345.6" xmlns="http://www.w3.org/2000/svg" version="1.1">
 <metadata>
  <rdf:RDF xmlns:dc="http://purl.org/dc/elements/1.1/" xmlns:cc="http://creativecommons.org/ns#" xmlns:rdf="http://www.w3.org/1999/02/22-rdf-syntax-ns#">
   <cc:Work>
    <dc:type rdf:resource="http://purl.org/dc/dcmitype/StillImage"/>
    <dc:date>2024-05-28T13:33:06.053540</dc:date>
    <dc:format>image/svg+xml</dc:format>
    <dc:creator>
     <cc:Agent>
      <dc:title>Matplotlib v3.7.1, https://matplotlib.org/</dc:title>
     </cc:Agent>
    </dc:creator>
   </cc:Work>
  </rdf:RDF>
 </metadata>
 <defs>
  <style type="text/css">*{stroke-linejoin: round; stroke-linecap: butt}</style>
 </defs>
 <g id="figure_1">
  <g id="axes_1">
   <g id="PatchCollection_1">
    <path d="M 178.3584 345.600001 
L 508.060803 345.600001 
L 508.060803 311.974578 
L 508.060803 235.6992 
L 178.3584 235.6992 
L 178.3584 272.3328 
L 178.3584 308.966401 
L 178.3584 345.600001 
" clip-path="url(#pd24ce89e9e)" style="fill: #f2f2f2"/>
   </g>
   <g id="PatchCollection_2">
    <defs>
     <path id="m76ad38c878" d="M 178.3584 -73.2672 
L 178.3584 -76.93056 
L 191.362854 -76.93056 
L 191.465821 -76.940909 
L 191.488392 -76.943107 
L 191.774067 -76.970035 
L 191.785887 -76.97113 
L 192.057824 -76.995875 
L 192.329283 -77.02261 
L 192.357187 -77.025251 
L 192.629806 -77.049996 
L 192.900917 -77.07644 
L 193.179527 -77.10379 
L 193.447205 -77.13072 
L 193.710574 -77.158934 
L 193.980247 -77.189068 
L 194.257916 -77.22085 
L 194.297711 -77.225185 
L 194.547757 -77.251041 
L 194.79689 -77.28128 
L 194.831994 -77.285369 
L 195.086041 -77.31372 
L 195.339189 -77.345882 
L 195.359718 -77.348432 
L 195.620266 -77.38004 
L 195.880038 -77.414464 
L 195.902904 -77.417421 
L 196.166766 -77.450699 
L 196.430383 -77.486242 
L 196.449701 -77.488795 
L 196.719698 -77.523737 
L 196.989072 -77.559973 
L 197.023895 -77.564488 
L 197.287277 -77.597351 
L 197.540211 -77.631002 
L 197.802614 -77.667442 
L 198.074834 -77.705934 
L 198.104903 -77.710058 
L 198.364978 -77.744638 
L 198.615006 -77.780239 
L 198.879906 -77.819312 
L 199.139349 -77.857792 
L 199.399701 -77.898473 
L 199.462574 -77.907739 
L 199.729601 -77.94473 
L 199.981854 -77.980756 
L 200.241155 -78.019845 
L 200.283134 -78.025925 
L 200.535142 -78.060935 
L 200.786078 -78.098839 
L 200.814473 -78.103014 
L 201.074637 -78.140229 
L 201.331694 -78.178777 
L 201.600567 -78.219467 
L 201.872723 -78.260548 
L 201.900921 -78.264693 
L 202.171667 -78.303409 
L 202.189296 -78.305886 
L 202.436355 -78.33999 
L 202.679648 -78.376808 
L 202.946098 -78.417529 
L 202.957189 -78.419207 
L 203.225905 -78.459433 
L 203.23852 -78.461299 
L 203.485668 -78.497417 
L 203.731815 -78.536355 
L 203.763971 -78.541296 
L 204.014564 -78.578659 
L 204.264661 -78.618327 
L 204.283102 -78.621204 
L 204.549449 -78.66206 
L 204.57526 -78.665925 
L 204.841096 -78.704766 
L 205.098344 -78.742418 
L 205.33543 -78.778199 
L 205.579743 -78.817846 
L 205.607622 -78.82226 
L 205.871812 -78.863046 
L 205.896343 -78.866748 
L 206.133332 -78.901692 
L 206.369263 -78.940062 
L 206.413514 -78.946981 
L 206.668196 -78.985209 
L 206.916996 -79.023712 
L 207.170986 -79.063765 
L 207.429714 -79.104905 
L 207.445016 -79.107305 
L 207.705458 -79.14759 
L 207.709173 -79.148162 
L 207.966012 -79.187619 
L 208.219741 -79.227091 
L 208.471791 -79.266658 
L 208.724755 -79.307013 
L 208.981537 -79.348125 
L 208.993704 -79.350052 
L 209.241393 -79.388855 
L 209.488307 -79.428906 
L 209.519833 -79.433879 
L 209.776245 -79.473182 
L 210.032051 -79.512429 
L 210.055899 -79.516007 
L 210.29811 -79.551538 
L 210.538744 -79.588661 
L 210.792098 -79.627891 
L 210.849607 -79.63633 
L 210.907242 -79.643855 
L 210.96499 -79.650464 
L 211.022835 -79.656156 
L 211.080763 -79.66093 
L 211.13876 -79.664785 
L 211.19681 -79.667718 
L 211.2549 -79.66973 
L 211.313015 -79.670821 
L 211.371139 -79.670989 
L 211.429259 -79.670235 
L 211.487359 -79.668558 
L 211.545425 -79.665961 
L 211.603443 -79.662442 
L 211.661398 -79.658003 
L 211.719275 -79.652646 
L 211.77706 -79.64637 
L 211.834738 -79.639179 
L 211.892295 -79.631073 
L 211.949716 -79.622056 
L 212.006986 -79.612128 
L 212.064092 -79.601293 
L 212.121018 -79.589553 
L 212.177752 -79.576912 
L 212.234277 -79.563372 
L 212.290581 -79.548937 
L 212.346648 -79.53361 
L 212.402465 -79.517396 
L 212.458018 -79.500298 
L 212.513293 -79.482321 
L 212.568276 -79.463469 
L 212.622952 -79.443748 
L 212.677309 -79.423161 
L 212.731332 -79.401714 
L 212.785008 -79.379413 
L 212.838324 -79.356263 
L 212.891265 -79.332271 
L 212.94382 -79.307441 
L 212.995973 -79.28178 
L 213.047713 -79.255296 
L 213.099027 -79.227993 
L 213.1499 -79.199881 
L 213.200321 -79.170964 
L 213.250277 -79.141251 
L 213.299756 -79.110749 
L 213.348744 -79.079466 
L 213.39723 -79.04741 
L 213.445201 -79.014588 
L 213.492645 -78.98101 
L 213.53955 -78.946683 
L 213.585905 -78.911616 
L 213.631698 -78.875818 
L 213.676917 -78.839298 
L 213.721551 -78.802065 
L 213.765588 -78.764129 
L 213.809018 -78.725499 
L 213.85183 -78.686184 
L 213.894013 -78.646196 
L 213.935555 -78.605543 
L 213.976448 -78.564236 
L 214.01668 -78.522285 
L 214.056241 -78.479702 
L 214.095122 -78.436496 
L 214.133312 -78.392678 
L 214.170803 -78.348261 
L 214.207584 -78.303254 
L 214.243646 -78.257669 
L 214.27898 -78.211517 
L 214.313578 -78.164811 
L 214.347431 -78.117562 
L 214.380529 -78.069782 
L 214.412865 -78.021482 
L 214.444431 -77.972676 
L 214.475218 -77.923375 
L 214.50522 -77.873592 
L 214.534428 -77.823338 
L 214.562834 -77.772628 
L 214.590433 -77.721474 
L 214.617216 -77.669888 
L 214.643178 -77.617884 
L 214.668311 -77.565474 
L 214.69261 -77.512672 
L 214.716068 -77.459491 
L 214.738679 -77.405945 
L 214.760438 -77.352047 
L 214.781338 -77.29781 
L 214.801376 -77.243248 
L 214.820546 -77.188376 
L 214.838842 -77.133206 
L 214.856261 -77.077753 
L 214.872798 -77.02203 
L 214.888448 -76.966052 
L 214.903209 -76.909833 
L 214.917075 -76.853387 
L 214.930045 -76.796728 
L 214.942114 -76.73987 
L 214.953279 -76.682828 
L 214.963538 -76.625616 
L 214.972887 -76.568248 
L 214.981326 -76.510739 
L 214.98885 -76.453104 
L 214.99546 -76.395356 
L 215.001152 -76.337511 
L 215.005926 -76.279583 
L 215.00978 -76.221586 
L 215.012714 -76.163536 
L 215.014726 -76.105446 
L 215.015816 -76.047332 
L 215.015985 -75.989208 
L 215.01523 -75.931088 
L 215.013554 -75.872987 
L 215.010957 -75.814921 
L 215.007438 -75.756903 
L 215.002999 -75.698948 
L 214.997641 -75.641071 
L 214.991366 -75.583286 
L 214.984175 -75.525608 
L 214.976069 -75.468052 
L 214.967051 -75.410631 
L 214.957124 -75.35336 
L 214.946289 -75.296255 
L 214.934549 -75.239328 
L 214.921908 -75.182595 
L 214.908368 -75.126069 
L 214.893932 -75.069766 
L 214.878606 -75.013698 
L 214.862392 -74.957881 
L 214.845294 -74.902328 
L 214.827317 -74.847053 
L 214.808465 -74.792071 
L 214.788743 -74.737394 
L 214.768157 -74.683038 
L 214.74671 -74.629014 
L 214.724409 -74.575338 
L 214.701259 -74.522023 
L 214.677266 -74.469081 
L 214.652437 -74.416527 
L 214.626776 -74.364373 
L 214.600292 -74.312633 
L 214.572989 -74.26132 
L 214.544876 -74.210446 
L 214.51596 -74.160025 
L 214.486247 -74.110069 
L 214.455745 -74.060591 
L 214.424462 -74.011602 
L 214.392406 -73.963117 
L 214.359584 -73.915146 
L 214.326006 -73.867702 
L 214.291679 -73.820796 
L 214.256612 -73.774441 
L 214.220814 -73.728648 
L 214.184294 -73.68343 
L 214.147061 -73.638796 
L 214.109125 -73.594758 
L 214.070495 -73.551328 
L 214.03118 -73.508516 
L 213.991192 -73.466334 
L 213.950539 -73.424791 
L 213.909232 -73.383898 
L 213.867281 -73.343666 
L 213.824698 -73.304105 
L 213.781492 -73.265224 
L 213.737674 -73.227034 
L 213.693257 -73.189544 
L 213.64825 -73.152763 
L 213.602665 -73.1167 
L 213.556513 -73.081366 
L 213.509807 -73.046768 
L 213.462558 -73.012916 
L 213.414778 -72.979817 
L 213.366478 -72.947481 
L 213.317672 -72.915915 
L 213.268371 -72.885128 
L 213.218587 -72.855127 
L 213.168334 -72.825919 
L 213.117624 -72.797512 
L 213.06647 -72.769914 
L 213.014884 -72.74313 
L 212.962879 -72.717168 
L 212.91047 -72.692035 
L 212.857668 -72.667736 
L 212.804487 -72.644279 
L 212.750941 -72.621667 
L 212.697042 -72.599909 
L 212.642806 -72.579008 
L 212.588244 -72.55897 
L 212.533372 -72.539801 
L 212.478202 -72.521504 
L 212.422749 -72.504086 
L 212.367026 -72.487549 
L 212.311048 -72.471898 
L 212.254829 -72.457138 
L 212.198383 -72.443271 
L 212.141724 -72.430302 
L 212.084866 -72.418233 
L 212.027824 -72.407068 
L 211.970612 -72.396809 
L 211.913244 -72.387459 
L 211.658872 -72.348071 
L 211.401774 -72.308408 
L 211.374941 -72.30437 
L 211.131236 -72.26862 
L 210.88709 -72.231162 
L 210.645674 -72.194158 
L 210.404728 -72.155074 
L 210.38515 -72.151953 
L 210.133753 -72.11257 
L 209.882036 -72.072268 
L 209.621522 -72.030708 
L 209.612521 -72.029284 
L 209.353475 -71.988619 
L 209.348485 -71.987839 
L 209.088829 -71.947445 
L 209.081964 -71.946384 
L 208.82355 -71.906685 
L 208.57262 -71.867872 
L 208.319226 -71.82758 
L 208.314598 -71.826847 
L 208.053097 -71.785609 
L 208.042698 -71.783985 
L 207.78047 -71.743404 
L 207.76401 -71.740895 
L 207.523242 -71.704755 
L 207.282623 -71.665624 
L 207.228978 -71.657307 
L 206.977407 -71.620212 
L 206.739424 -71.583472 
L 206.489001 -71.542834 
L 206.448885 -71.536552 
L 206.183645 -71.496521 
L 206.167481 -71.494119 
L 205.901699 -71.455218 
L 205.64743 -71.418067 
L 205.403205 -71.380604 
L 205.145513 -71.339731 
L 205.111864 -71.334554 
L 204.860525 -71.29708 
L 204.609138 -71.257313 
L 204.566486 -71.250823 
L 204.304301 -71.212507 
L 204.047437 -71.174056 
L 203.78388 -71.133776 
L 203.778577 -71.13297 
L 203.509059 -71.092184 
L 203.461867 -71.085356 
L 203.200007 -71.049208 
L 202.952179 -71.013769 
L 202.696198 -70.97513 
L 202.425573 -70.934175 
L 202.42068 -70.933437 
L 202.148921 -70.892685 
L 202.124398 -70.889093 
L 201.866172 -70.852155 
L 201.607918 -70.813146 
L 201.564867 -70.806904 
L 201.31232 -70.771819 
L 201.059933 -70.733773 
L 201.031801 -70.729643 
L 200.757848 -70.690518 
L 200.742591 -70.688372 
L 200.49941 -70.654684 
L 200.256415 -70.616715 
L 200.228322 -70.612437 
L 199.95338 -70.571659 
L 199.67507 -70.530606 
L 199.656909 -70.527974 
L 199.381019 -70.48869 
L 199.34744 -70.484068 
L 199.085608 -70.449254 
L 198.823908 -70.41225 
L 198.814894 -70.410987 
L 198.537611 -70.372481 
L 198.516859 -70.36966 
L 198.238772 -70.332662 
L 198.209212 -70.328851 
L 197.948464 -70.296317 
L 197.687384 -70.261196 
L 197.669166 -70.258792 
L 197.399719 -70.223921 
L 197.130212 -70.187584 
L 197.099106 -70.183526 
L 196.83112 -70.149727 
L 196.562754 -70.114164 
L 196.522682 -70.109078 
L 196.252351 -70.076283 
L 195.981786 -70.041909 
L 195.926379 -70.035298 
L 195.662163 -70.005811 
L 195.398299 -69.973784 
L 195.33369 -69.966524 
L 195.071216 -69.939383 
L 194.808548 -69.909317 
L 194.798779 -69.908212 
L 194.515915 -69.876604 
L 194.499299 -69.874786 
L 194.215877 -69.844424 
L 194.192381 -69.841984 
L 193.908543 -69.813427 
L 193.899721 -69.812551 
L 193.615569 -69.784657 
L 193.328834 -69.756689 
L 193.304363 -69.754385 
L 193.033462 -69.729795 
L 192.762409 -69.703099 
L 192.735317 -69.700533 
L 192.45574 -69.675093 
L 192.187265 -69.649786 
L 191.912859 -69.622205 
L 191.851955 -69.616597 
L 191.790965 -69.612006 
L 191.729907 -69.608434 
L 191.668799 -69.605882 
L 191.607656 -69.60435 
L 191.546496 -69.60384 
L 178.3584 -69.60384 
L 178.3584 -73.2672 
" style="stroke: #000000; stroke-width: 2"/>
    </defs>
    <g clip-path="url(#pd24ce89e9e)">
     <use xlink:href="#m76ad38c878" x="0" y="345.6" style="fill: #e6e6e6; stroke: #000000; stroke-width: 2"/>
    </g>
   </g>
   <g id="PatchCollection_3">
    <defs>
     <path id="m6f0ae85976" d="M 178.3584 -36.633599 
L 178.3584 -40.296959 
L 194.84352 -40.296959 
L 194.903437 -40.296469 
L 194.963338 -40.294999 
L 195.023208 -40.29255 
L 195.083029 -40.289121 
L 195.412026 -40.267566 
L 195.732043 -40.246381 
L 196.049708 -40.227348 
L 196.080679 -40.225361 
L 196.386264 -40.204452 
L 196.692092 -40.18745 
L 196.746135 -40.184044 
L 197.075023 -40.160879 
L 197.08309 -40.160301 
L 197.40873 -40.136642 
L 197.71932 -40.114622 
L 198.033278 -40.094968 
L 198.115251 -40.088912 
L 198.407003 -40.064066 
L 198.692298 -40.045549 
L 199.014486 -40.025857 
L 199.054204 -40.023213 
L 199.378244 -39.999872 
L 199.702345 -39.977384 
L 199.731015 -39.975282 
L 200.059737 -39.94988 
L 200.083059 -39.948003 
L 200.393227 -39.922041 
L 200.703641 -39.899204 
L 200.737238 -39.896577 
L 201.065815 -39.869363 
L 201.071178 -39.868915 
L 201.395451 -39.841578 
L 201.719787 -39.814998 
L 201.725544 -39.814522 
L 202.054102 -39.787075 
L 202.079208 -39.78489 
L 202.40757 -39.755184 
L 202.420349 -39.754005 
L 202.714302 -39.726373 
L 203.004414 -39.704597 
L 203.32894 -39.681008 
L 203.343996 -39.679883 
L 203.672729 -39.654626 
L 203.720412 -39.650649 
L 204.008452 -39.62473 
L 204.296994 -39.605186 
L 204.358835 -39.60047 
L 204.662208 -39.574755 
L 204.965906 -39.553223 
L 204.989881 -39.551444 
L 205.318597 -39.525968 
L 205.359249 -39.52259 
L 205.669136 -39.4951 
L 205.979287 -39.470757 
L 206.022588 -39.4671 
L 206.339905 -39.438404 
L 206.655712 -39.411771 
L 206.969609 -39.38559 
L 207.285364 -39.361514 
L 207.316431 -39.359012 
L 207.617776 -39.333455 
L 207.919468 -39.312388 
L 207.965646 -39.30887 
L 208.28752 -39.2823 
L 208.609489 -39.256915 
L 208.6164 -39.256363 
L 208.945033 -39.229826 
L 208.979338 -39.226893 
L 209.307707 -39.197269 
L 209.638459 -39.16721 
L 209.648769 -39.166258 
L 209.962189 -39.136881 
L 210.261892 -39.111248 
L 210.576647 -39.086749 
L 210.653877 -39.079915 
L 210.964479 -39.049114 
L 211.257524 -39.022891 
L 211.568332 -38.998139 
L 211.603716 -38.995148 
L 211.911588 -38.967624 
L 212.21975 -38.943565 
L 212.270596 -38.939239 
L 212.579171 -38.910818 
L 212.888035 -38.885738 
L 212.916938 -38.883276 
L 213.226306 -38.855687 
L 213.535946 -38.831327 
L 213.569512 -38.828531 
L 213.897947 -38.799651 
L 213.910507 -38.798525 
L 214.22507 -38.769774 
L 214.539842 -38.743398 
L 214.557403 -38.741884 
L 214.880326 -38.71326 
L 215.203333 -38.685608 
L 215.256341 -38.680682 
L 215.57001 -38.649231 
L 215.881305 -38.620499 
L 216.196377 -38.591874 
L 216.514226 -38.564869 
L 216.52065 -38.564317 
L 216.839997 -38.536619 
L 217.14648 -38.511579 
L 217.462263 -38.488041 
L 217.475048 -38.487066 
L 217.80375 -38.461408 
L 217.822706 -38.459879 
L 218.140637 -38.433401 
L 218.45035 -38.409424 
L 218.770813 -38.38609 
L 218.790073 -38.384637 
L 219.118774 -38.35896 
L 219.176685 -38.353974 
L 219.234509 -38.34807 
L 219.292232 -38.341249 
L 219.349839 -38.333513 
L 219.407317 -38.324864 
L 219.46465 -38.315304 
L 219.521824 -38.304836 
L 219.578824 -38.293462 
L 219.635638 -38.281185 
L 219.692249 -38.268008 
L 219.748644 -38.253934 
L 219.804809 -38.238968 
L 219.860729 -38.223112 
L 219.91639 -38.206371 
L 219.971779 -38.18875 
L 220.026882 -38.170251 
L 220.081684 -38.150881 
L 220.136171 -38.130643 
L 220.190331 -38.109544 
L 220.244149 -38.087588 
L 220.297612 -38.064781 
L 220.350707 -38.041128 
L 220.403419 -38.016636 
L 220.455737 -37.991311 
L 220.507646 -37.965159 
L 220.559133 -37.938187 
L 220.610186 -37.910401 
L 220.660792 -37.881808 
L 220.710938 -37.852417 
L 220.760611 -37.822233 
L 220.809799 -37.791265 
L 220.858489 -37.759521 
L 220.90667 -37.727008 
L 220.954328 -37.693735 
L 221.001453 -37.659709 
L 221.048032 -37.624941 
L 221.094054 -37.589437 
L 221.139506 -37.553208 
L 221.184378 -37.516263 
L 221.228658 -37.47861 
L 221.272335 -37.440259 
L 221.315399 -37.40122 
L 221.357837 -37.361503 
L 221.39964 -37.321118 
L 221.440797 -37.280074 
L 221.481297 -37.238383 
L 221.521131 -37.196054 
L 221.560288 -37.153098 
L 221.598759 -37.109527 
L 221.636534 -37.065351 
L 221.673603 -37.020581 
L 221.709957 -36.975228 
L 221.745587 -36.929305 
L 221.780483 -36.882822 
L 221.814638 -36.835791 
L 221.848043 -36.788224 
L 221.880688 -36.740133 
L 221.912567 -36.69153 
L 221.94367 -36.642428 
L 221.97399 -36.592838 
L 222.00352 -36.542773 
L 222.032252 -36.492247 
L 222.060178 -36.44127 
L 222.087292 -36.389857 
L 222.113587 -36.338021 
L 222.139056 -36.285773 
L 222.163693 -36.233128 
L 222.187492 -36.180099 
L 222.210446 -36.126699 
L 222.23255 -36.072942 
L 222.253799 -36.01884 
L 222.274186 -35.964408 
L 222.293707 -35.90966 
L 222.312358 -35.854609 
L 222.330132 -35.799269 
L 222.347026 -35.743653 
L 222.363036 -35.687777 
L 222.378157 -35.631654 
L 222.392385 -35.575298 
L 222.405718 -35.518723 
L 222.418152 -35.461944 
L 222.429683 -35.404975 
L 222.440308 -35.34783 
L 222.450026 -35.290523 
L 222.458833 -35.23307 
L 222.466728 -35.175484 
L 222.473708 -35.11778 
L 222.479772 -35.059972 
L 222.484917 -35.002076 
L 222.489144 -34.944105 
L 222.49245 -34.886075 
L 222.494835 -34.827999 
L 222.496298 -34.769893 
L 222.496839 -34.711771 
L 222.496458 -34.653648 
L 222.495155 -34.595538 
L 222.49293 -34.537456 
L 222.489784 -34.479416 
L 222.485717 -34.421434 
L 222.480731 -34.363524 
L 222.474826 -34.3057 
L 222.468005 -34.247977 
L 222.460269 -34.19037 
L 222.45162 -34.132892 
L 222.442061 -34.075559 
L 222.431592 -34.018385 
L 222.420218 -33.961384 
L 222.407941 -33.904571 
L 222.394764 -33.84796 
L 222.380691 -33.791565 
L 222.365724 -33.7354 
L 222.349869 -33.67948 
L 222.333128 -33.623818 
L 222.315506 -33.568429 
L 222.297008 -33.513327 
L 222.277637 -33.458525 
L 222.2574 -33.404037 
L 222.2363 -33.349878 
L 222.214344 -33.296059 
L 222.191537 -33.242596 
L 222.167885 -33.189502 
L 222.143393 -33.136789 
L 222.118067 -33.084472 
L 222.091915 -33.032563 
L 222.064943 -32.981076 
L 222.037157 -32.930023 
L 222.008565 -32.879417 
L 221.979173 -32.829271 
L 221.94899 -32.779598 
L 221.918022 -32.73041 
L 221.886277 -32.68172 
L 221.853764 -32.633539 
L 221.820491 -32.58588 
L 221.786466 -32.538755 
L 221.751697 -32.492176 
L 221.716194 -32.446155 
L 221.679965 -32.400702 
L 221.643019 -32.355831 
L 221.605366 -32.31155 
L 221.567016 -32.267873 
L 221.527977 -32.22481 
L 221.48826 -32.182372 
L 221.447874 -32.140569 
L 221.406831 -32.099412 
L 221.365139 -32.058912 
L 221.32281 -32.019078 
L 221.279855 -31.97992 
L 221.236284 -31.94145 
L 221.192107 -31.903675 
L 221.147337 -31.866606 
L 221.101985 -31.830252 
L 221.056061 -31.794622 
L 221.009578 -31.759725 
L 220.962547 -31.72557 
L 220.91498 -31.692166 
L 220.866889 -31.65952 
L 220.818287 -31.627642 
L 220.769184 -31.596539 
L 220.719594 -31.566218 
L 220.66953 -31.536689 
L 220.619003 -31.507957 
L 220.568027 -31.480031 
L 220.516614 -31.452917 
L 220.464777 -31.426622 
L 220.41253 -31.401153 
L 220.359885 -31.376516 
L 220.306856 -31.352717 
L 220.253456 -31.329763 
L 220.199698 -31.307658 
L 220.145597 -31.28641 
L 220.091165 -31.266022 
L 220.036417 -31.246501 
L 219.981365 -31.227851 
L 219.926025 -31.210077 
L 219.87041 -31.193183 
L 219.814534 -31.177173 
L 219.75841 -31.162052 
L 219.702054 -31.147823 
L 219.645479 -31.13449 
L 219.5887 -31.122057 
L 219.531731 -31.110526 
L 219.474586 -31.0999 
L 219.417279 -31.090182 
L 219.359826 -31.081375 
L 219.30224 -31.073481 
L 219.244536 -31.066501 
L 219.186729 -31.060437 
L 219.128832 -31.055291 
L 219.070862 -31.051065 
L 219.012831 -31.047759 
L 218.954756 -31.045374 
L 218.896649 -31.043911 
L 218.838527 -31.04337 
L 218.780404 -31.043751 
L 218.722294 -31.045054 
L 218.664212 -31.047279 
L 218.606173 -31.050425 
L 218.548191 -31.054492 
L 218.229118 -31.079416 
L 217.909918 -31.102657 
L 217.893183 -31.103915 
L 217.564464 -31.129364 
L 217.54319 -31.131073 
L 217.224102 -31.157647 
L 216.911271 -31.182066 
L 216.588873 -31.206096 
L 216.562867 -31.208128 
L 216.23426 -31.234976 
L 216.216012 -31.236512 
L 215.890755 -31.264724 
L 215.565448 -31.292362 
L 215.544114 -31.294238 
L 215.215764 -31.32407 
L 215.210537 -31.324548 
L 214.88223 -31.35485 
L 214.853443 -31.357622 
L 214.551871 -31.387859 
L 214.249892 -31.413711 
L 214.238907 -31.414668 
L 213.919271 -31.443001 
L 213.599502 -31.469796 
L 213.571953 -31.472209 
L 213.249898 -31.501645 
L 212.94452 -31.528497 
L 212.632622 -31.553035 
L 212.594545 -31.55623 
L 212.280592 -31.584228 
L 211.966427 -31.609738 
L 211.926933 -31.613161 
L 211.624028 -31.641059 
L 211.320764 -31.664736 
L 211.279703 -31.668174 
L 210.968995 -31.695952 
L 210.658032 -31.720716 
L 210.62234 -31.723734 
L 210.29395 -31.75312 
L 210.258952 -31.756421 
L 209.969438 -31.785131 
L 209.679381 -31.807708 
L 209.651482 -31.809986 
L 209.322979 -31.838082 
L 209.293281 -31.840744 
L 208.970172 -31.87103 
L 208.64818 -31.900293 
L 208.338158 -31.928263 
L 208.03014 -31.953135 
L 207.704914 -31.978778 
L 207.69149 -31.979861 
L 207.385983 -32.005079 
L 207.080182 -32.026434 
L 207.025794 -32.030639 
L 206.712799 -32.057184 
L 206.39959 -32.081065 
L 206.37361 -32.083139 
L 206.045049 -32.110543 
L 205.713156 -32.138531 
L 205.69106 -32.140462 
L 205.384337 -32.1682 
L 205.077306 -32.192298 
L 205.04024 -32.195397 
L 204.732144 -32.222728 
L 204.435747 -32.245699 
L 204.11886 -32.268167 
L 204.06853 -32.272084 
L 203.770907 -32.297312 
L 203.472899 -32.317497 
L 203.392155 -32.323864 
L 203.087608 -32.351268 
L 202.790256 -32.374114 
L 202.46895 -32.397469 
L 202.460333 -32.398106 
L 202.131555 -32.422783 
L 202.062896 -32.428586 
L 201.74103 -32.458843 
L 201.431608 -32.486836 
L 201.118485 -32.512994 
L 200.792763 -32.539687 
L 200.784235 -32.540396 
L 200.458379 -32.567866 
L 200.149275 -32.593467 
L 199.837265 -32.616421 
L 199.800481 -32.619314 
L 199.483585 -32.645839 
L 199.180857 -32.669232 
L 198.866285 -32.691059 
L 198.856664 -32.691739 
L 198.547665 -32.713997 
L 198.238443 -32.732896 
L 198.224644 -32.733765 
L 197.895634 -32.75512 
L 197.822056 -32.76064 
L 197.534495 -32.78513 
L 197.246458 -32.803161 
L 197.216266 -32.805176 
L 196.887389 -32.828493 
L 196.880998 -32.828952 
L 196.556196 -32.85255 
L 196.258351 -32.873529 
L 195.956191 -32.890328 
L 195.909477 -32.893225 
L 195.596025 -32.914672 
L 195.282402 -32.933462 
L 195.259512 -32.934906 
L 194.931769 -32.956602 
L 194.723637 -32.970239 
L 178.3584 -32.970239 
L 178.3584 -36.633599 
" style="stroke: #000000; stroke-width: 2"/>
    </defs>
    <g clip-path="url(#pd24ce89e9e)">
     <use xlink:href="#m6f0ae85976" x="0" y="345.6" style="fill: #e6e6e6; stroke: #000000; stroke-width: 2"/>
    </g>
   </g>
   <g id="PatchCollection_4">
    <defs>
     <path id="m0cc534c4c5" d="M 178.3584 -73.2672 
L 178.3584 -76.93056 
L 191.546496 -76.93056 
L 191.604618 -76.930099 
L 191.662727 -76.928715 
L 191.720805 -76.92641 
L 191.77884 -76.923184 
L 191.836817 -76.919038 
L 191.89472 -76.913972 
L 191.952536 -76.907988 
L 192.010249 -76.901087 
L 192.067846 -76.893272 
L 192.125312 -76.884544 
L 192.182632 -76.874905 
L 192.239791 -76.864358 
L 192.296776 -76.852905 
L 192.353573 -76.84055 
L 192.410166 -76.827295 
L 192.466541 -76.813144 
L 192.522685 -76.7981 
L 192.578584 -76.782168 
L 192.634222 -76.76535 
L 192.689587 -76.747652 
L 192.744663 -76.729078 
L 192.799439 -76.709632 
L 192.853898 -76.68932 
L 192.908029 -76.668146 
L 192.961817 -76.646115 
L 193.015249 -76.623235 
L 193.06831 -76.599509 
L 193.120989 -76.574945 
L 193.173272 -76.549547 
L 193.225144 -76.523324 
L 193.276595 -76.496281 
L 193.327609 -76.468425 
L 193.378176 -76.439762 
L 193.428281 -76.410302 
L 193.477912 -76.38005 
L 193.527058 -76.349014 
L 193.575704 -76.317203 
L 193.62384 -76.284624 
L 193.671453 -76.251285 
L 193.718531 -76.217195 
L 193.765062 -76.182362 
L 193.811035 -76.146795 
L 193.856437 -76.110504 
L 193.901258 -76.073496 
L 193.945486 -76.035782 
L 193.989111 -75.997372 
L 194.03212 -75.958274 
L 194.074504 -75.918498 
L 194.116251 -75.878055 
L 194.157351 -75.836955 
L 194.197794 -75.795208 
L 194.23757 -75.752824 
L 194.276668 -75.709815 
L 194.315079 -75.66619 
L 194.352792 -75.621962 
L 194.3898 -75.577141 
L 194.426091 -75.531739 
L 194.461658 -75.485766 
L 194.496491 -75.439235 
L 194.530581 -75.392157 
L 194.56392 -75.344544 
L 194.596499 -75.296408 
L 194.62831 -75.247762 
L 194.659346 -75.198616 
L 194.689598 -75.148985 
L 194.719059 -75.09888 
L 194.747721 -75.048313 
L 194.775577 -74.997299 
L 194.80262 -74.945848 
L 194.828844 -74.893976 
L 194.854241 -74.841693 
L 194.878805 -74.789014 
L 194.902531 -74.735953 
L 194.925412 -74.682521 
L 194.947442 -74.628733 
L 194.968616 -74.574602 
L 194.988928 -74.520143 
L 195.008374 -74.465367 
L 195.026948 -74.41029 
L 195.044646 -74.354926 
L 195.061464 -74.299287 
L 195.077397 -74.243389 
L 195.09244 -74.187245 
L 195.106591 -74.130869 
L 195.119846 -74.074276 
L 195.132201 -74.01748 
L 195.143654 -73.960495 
L 195.154201 -73.903335 
L 195.16384 -73.846016 
L 195.172568 -73.78855 
L 195.180383 -73.730953 
L 195.187284 -73.67324 
L 195.193268 -73.615424 
L 195.198334 -73.557521 
L 195.20248 -73.499544 
L 195.205706 -73.441509 
L 195.208011 -73.38343 
L 195.209395 -73.325322 
L 195.209856 -73.2672 
L 195.209395 -73.209077 
L 195.208011 -73.150969 
L 195.205706 -73.09289 
L 195.20248 -73.034855 
L 195.198334 -72.976879 
L 195.193268 -72.918975 
L 195.187284 -72.861159 
L 195.180383 -72.803446 
L 195.172568 -72.745849 
L 195.16384 -72.688384 
L 195.154201 -72.631064 
L 195.143654 -72.573904 
L 195.132201 -72.516919 
L 195.119846 -72.460123 
L 195.106591 -72.40353 
L 195.09244 -72.347154 
L 195.077397 -72.29101 
L 195.061464 -72.235112 
L 195.044646 -72.179473 
L 195.026948 -72.124109 
L 195.008374 -72.069032 
L 194.988928 -72.014257 
L 194.968616 -71.959797 
L 194.947442 -71.905666 
L 194.925412 -71.851878 
L 194.902531 -71.798447 
L 194.878805 -71.745385 
L 194.854241 -71.692706 
L 194.828844 -71.640424 
L 194.80262 -71.588551 
L 194.775577 -71.537101 
L 194.747721 -71.486086 
L 194.719059 -71.43552 
L 194.689598 -71.385414 
L 194.659346 -71.335783 
L 194.62831 -71.286638 
L 194.596499 -71.237991 
L 194.56392 -71.189855 
L 194.530581 -71.142242 
L 194.496491 -71.095164 
L 194.461658 -71.048633 
L 194.426091 -71.002661 
L 194.3898 -70.957258 
L 194.352792 -70.912437 
L 194.315079 -70.868209 
L 194.276668 -70.824585 
L 194.23757 -70.781575 
L 194.197794 -70.739192 
L 194.157351 -70.697445 
L 194.116251 -70.656344 
L 194.074504 -70.615901 
L 194.03212 -70.576126 
L 193.989111 -70.537028 
L 193.945486 -70.498617 
L 193.901258 -70.460903 
L 193.856437 -70.423896 
L 193.811035 -70.387604 
L 193.765062 -70.352038 
L 193.718531 -70.317205 
L 193.671453 -70.283115 
L 193.62384 -70.249776 
L 193.575704 -70.217197 
L 193.527058 -70.185385 
L 193.477912 -70.154349 
L 193.428281 -70.124097 
L 193.378176 -70.094637 
L 193.327609 -70.065975 
L 193.276595 -70.038119 
L 193.225144 -70.011075 
L 193.173272 -69.984852 
L 193.120989 -69.959455 
L 193.06831 -69.93489 
L 193.015249 -69.911165 
L 192.961817 -69.888284 
L 192.908029 -69.866254 
L 192.853898 -69.84508 
L 192.799439 -69.824767 
L 192.744663 -69.805321 
L 192.689587 -69.786747 
L 192.634222 -69.769049 
L 192.578584 -69.752231 
L 192.522685 -69.736299 
L 192.466541 -69.721255 
L 192.410166 -69.707104 
L 192.353573 -69.693849 
L 192.296776 -69.681494 
L 192.239791 -69.670041 
L 192.182632 -69.659494 
L 192.125312 -69.649855 
L 192.067846 -69.641127 
L 192.010249 -69.633312 
L 191.952536 -69.626412 
L 191.89472 -69.620428 
L 191.836817 -69.615362 
L 191.77884 -69.611215 
L 191.720805 -69.607989 
L 191.662727 -69.605684 
L 191.604618 -69.604301 
L 191.546496 -69.60384 
L 178.3584 -69.60384 
L 178.3584 -73.2672 
" style="stroke: #000000; stroke-width: 2"/>
    </defs>
    <g clip-path="url(#pd24ce89e9e)">
     <use xlink:href="#m0cc534c4c5" x="0" y="345.6" style="fill: #8e8e8e; stroke: #000000; stroke-width: 2"/>
    </g>
   </g>
   <g id="PatchCollection_5">
    <defs>
     <path id="mdf1323ec84" d="M 178.3584 -36.633599 
L 178.3584 -40.296959 
L 194.84352 -40.296959 
L 194.901642 -40.296498 
L 194.959751 -40.295115 
L 195.017829 -40.29281 
L 195.075864 -40.289584 
L 195.133841 -40.285437 
L 195.191744 -40.280371 
L 195.24956 -40.274387 
L 195.307273 -40.267487 
L 195.36487 -40.259672 
L 195.422336 -40.250943 
L 195.479656 -40.241305 
L 195.536815 -40.230758 
L 195.5938 -40.219305 
L 195.650597 -40.20695 
L 195.70719 -40.193695 
L 195.763565 -40.179544 
L 195.819709 -40.1645 
L 195.875608 -40.148567 
L 195.931246 -40.13175 
L 195.986611 -40.114052 
L 196.041687 -40.095478 
L 196.096463 -40.076032 
L 196.150922 -40.055719 
L 196.205053 -40.034545 
L 196.258841 -40.012515 
L 196.312273 -39.989634 
L 196.365335 -39.965909 
L 196.418013 -39.941344 
L 196.470296 -39.915947 
L 196.522168 -39.889724 
L 196.573619 -39.86268 
L 196.624633 -39.834824 
L 196.6752 -39.806162 
L 196.725305 -39.776701 
L 196.774936 -39.746449 
L 196.824082 -39.715414 
L 196.872728 -39.683602 
L 196.920864 -39.651023 
L 196.968477 -39.617684 
L 197.015555 -39.583594 
L 197.062086 -39.548761 
L 197.108059 -39.513195 
L 197.153461 -39.476903 
L 197.198282 -39.439896 
L 197.24251 -39.402182 
L 197.286135 -39.363771 
L 197.329144 -39.324673 
L 197.371528 -39.284898 
L 197.413275 -39.244455 
L 197.454375 -39.203354 
L 197.494818 -39.161607 
L 197.534594 -39.119224 
L 197.573692 -39.076214 
L 197.612103 -39.03259 
L 197.649816 -38.988362 
L 197.686824 -38.943541 
L 197.723115 -38.898138 
L 197.758682 -38.852166 
L 197.793515 -38.805634 
L 197.827605 -38.758557 
L 197.860944 -38.710944 
L 197.893523 -38.662808 
L 197.925334 -38.614161 
L 197.95637 -38.565016 
L 197.986622 -38.515384 
L 198.016083 -38.465279 
L 198.044745 -38.414713 
L 198.072601 -38.363698 
L 198.099644 -38.312248 
L 198.125868 -38.260375 
L 198.151265 -38.208093 
L 198.175829 -38.155414 
L 198.199555 -38.102352 
L 198.222436 -38.048921 
L 198.244466 -37.995133 
L 198.26564 -37.941002 
L 198.285952 -37.886542 
L 198.305398 -37.831767 
L 198.323972 -37.77669 
L 198.34167 -37.721326 
L 198.358488 -37.665687 
L 198.374421 -37.609789 
L 198.389464 -37.553645 
L 198.403615 -37.497269 
L 198.41687 -37.440676 
L 198.429226 -37.38388 
L 198.440678 -37.326895 
L 198.451225 -37.269735 
L 198.460864 -37.212415 
L 198.469592 -37.15495 
L 198.477407 -37.097353 
L 198.484308 -37.039639 
L 198.490292 -36.981824 
L 198.495358 -36.92392 
L 198.499504 -36.865944 
L 198.50273 -36.807909 
L 198.505035 -36.74983 
L 198.506419 -36.691722 
L 198.50688 -36.633599 
L 198.506419 -36.575477 
L 198.505035 -36.517368 
L 198.50273 -36.45929 
L 198.499504 -36.401255 
L 198.495358 -36.343278 
L 198.490292 -36.285375 
L 198.484308 -36.227559 
L 198.477407 -36.169846 
L 198.469592 -36.112249 
L 198.460864 -36.054783 
L 198.451225 -35.997463 
L 198.440678 -35.940304 
L 198.429226 -35.883319 
L 198.41687 -35.826522 
L 198.403615 -35.769929 
L 198.389464 -35.713554 
L 198.374421 -35.65741 
L 198.358488 -35.601511 
L 198.34167 -35.545873 
L 198.323972 -35.490508 
L 198.305398 -35.435432 
L 198.285952 -35.380656 
L 198.26564 -35.326197 
L 198.244466 -35.272066 
L 198.222436 -35.218278 
L 198.199555 -35.164846 
L 198.175829 -35.111785 
L 198.151265 -35.059106 
L 198.125868 -35.006823 
L 198.099644 -34.954951 
L 198.072601 -34.9035 
L 198.044745 -34.852486 
L 198.016083 -34.801919 
L 197.986622 -34.751814 
L 197.95637 -34.702183 
L 197.925334 -34.653037 
L 197.893523 -34.604391 
L 197.860944 -34.556255 
L 197.827605 -34.508642 
L 197.793515 -34.461564 
L 197.758682 -34.415033 
L 197.723115 -34.36906 
L 197.686824 -34.323658 
L 197.649816 -34.278837 
L 197.612103 -34.234609 
L 197.573692 -34.190984 
L 197.534594 -34.147975 
L 197.494818 -34.105591 
L 197.454375 -34.063844 
L 197.413275 -34.022744 
L 197.371528 -33.982301 
L 197.329144 -33.942525 
L 197.286135 -33.903427 
L 197.24251 -33.865016 
L 197.198282 -33.827303 
L 197.153461 -33.790295 
L 197.108059 -33.754004 
L 197.062086 -33.718437 
L 197.015555 -33.683604 
L 196.968477 -33.649514 
L 196.920864 -33.616175 
L 196.872728 -33.583596 
L 196.824082 -33.551785 
L 196.774936 -33.520749 
L 196.725305 -33.490497 
L 196.6752 -33.461036 
L 196.624633 -33.432374 
L 196.573619 -33.404518 
L 196.522168 -33.377475 
L 196.470296 -33.351251 
L 196.418013 -33.325854 
L 196.365335 -33.30129 
L 196.312273 -33.277564 
L 196.258841 -33.254683 
L 196.205053 -33.232653 
L 196.150922 -33.211479 
L 196.096463 -33.191167 
L 196.041687 -33.171721 
L 195.986611 -33.153147 
L 195.931246 -33.135449 
L 195.875608 -33.118631 
L 195.819709 -33.102698 
L 195.763565 -33.087655 
L 195.70719 -33.073504 
L 195.650597 -33.060249 
L 195.5938 -33.047894 
L 195.536815 -33.036441 
L 195.479656 -33.025894 
L 195.422336 -33.016255 
L 195.36487 -33.007527 
L 195.307273 -32.999712 
L 195.24956 -32.992811 
L 195.191744 -32.986827 
L 195.133841 -32.981761 
L 195.075864 -32.977615 
L 195.017829 -32.974389 
L 194.959751 -32.972084 
L 194.901642 -32.9707 
L 194.84352 -32.970239 
L 178.3584 -32.970239 
L 178.3584 -36.633599 
" style="stroke: #000000; stroke-width: 2"/>
    </defs>
    <g clip-path="url(#pd24ce89e9e)">
     <use xlink:href="#mdf1323ec84" x="0" y="345.6" style="fill: #8e8e8e; stroke: #000000; stroke-width: 2"/>
    </g>
   </g>
   <g id="line2d_1">
    <path d="M 178.3584 345.600001 
L 461.8 345.600001 
" clip-path="url(#pd24ce89e9e)" style="fill: none; stroke: #000000; stroke-width: 8; stroke-linecap: round"/>
   </g>
   <g id="line2d_2">
    <path clip-path="url(#pd24ce89e9e)" style="fill: none; stroke: #000000; stroke-width: 8; stroke-linecap: round"/>
   </g>
   <g id="line2d_3">
    <path clip-path="url(#pd24ce89e9e)" style="fill: none; stroke: #000000; stroke-width: 8; stroke-linecap: round"/>
   </g>
   <g id="line2d_4">
    <path d="M 461.8 235.6992 
L 178.3584 235.6992 
" clip-path="url(#pd24ce89e9e)" style="fill: none; stroke: #000000; stroke-width: 8; stroke-linecap: round"/>
   </g>
   <g id="line2d_5">
    <path d="M 178.3584 235.6992 
L 178.3584 272.3328 
" clip-path="url(#pd24ce89e9e)" style="fill: none; stroke: #000000; stroke-width: 8; stroke-linecap: round"/>
   </g>
   <g id="line2d_6">
    <path d="M 178.3584 272.3328 
L 178.3584 308.966401 
" clip-path="url(#pd24ce89e9e)" style="fill: none; stroke: #000000; stroke-width: 8; stroke-linecap: round"/>
   </g>
   <g id="line2d_7">
    <path d="M 178.3584 308.966401 
L 178.3584 345.600001 
" clip-path="url(#pd24ce89e9e)" style="fill: none; stroke: #000000; stroke-width: 8; stroke-linecap: round"/>
   </g>
  </g>
 </g>
 <defs>
  <clipPath id="pd24ce89e9e">
   <rect x="178.3584" y="235.6992" width="82.425601" height="109.9008"/>
  </clipPath>
 </defs>
</svg>
