<?xml version="1.0" encoding="utf-8" standalone="no"?>
<!DOCTYPE svg PUBLIC "-//W3C//DTD SVG 1.1//EN"
  "http://www.w3.org/Graphics/SVG/1.1/DTD/svg11.dtd">
<svg xmlns:xlink="http://www.w3.org/1999/xlink" width="460.8pt" height="345.6pt" viewBox="0 0 460.8 345.6" xmlns="http://www.w3.org/2000/svg" version="1.1">
 <metadata>
  <rdf:RDF xmlns:dc="http://purl.org/dc/elements/1.1/" xmlns:cc="http://creativecommons.org/ns#" xmlns:rdf="http://www.w3.org/1999/02/22-rdf-syntax-ns#">
   <cc:Work>
    <dc:type rdf:resource="http://purl.org/dc/dcmitype/StillImage"/>
    <dc:date>2024-05-28T13:33:05.966273</dc:date>
    <dc:format>image/svg+xml</dc:format>
    <dc:creator>
     <cc:Agent>
      <dc:title>Matplotlib v3.7.1, https://matplotlib.org/</dc:title>
     </cc:Agent>
    </dc:creator>
   </cc:Work>
  </rdf:RDF>
 </metadata>
 <defs>
  <style type="text/css">*{stroke-linejoin: round; stroke-linecap: butt}</style>
 </defs>
 <g id="figure_1">
  <g id="axes_1">
   <g id="PatchCollection_1">
    <path d="M 178.3584 345.600001 
L 508.060803 345.600001 
L 508.060803 308.033889 
L 508.060803 235.6992 
L 178.3584 235.6992 
L 178.3584 272.3328 
L 178.3584 308.966401 
L 178.3584 345.600001 
" clip-path="url(#pbddc0735e5)" style="fill: #f2f2f2"/>
   </g>
   <g id="PatchCollection_2">
    <defs>
     <path id="me31d7b4b22" d="M 178.3584 -73.2672 
L 178.3584 -76.93056 
L 191.546496 -76.93056 
L 191.604618 -76.930099 
L 191.662727 -76.928715 
L 191.720805 -76.92641 
L 191.77884 -76.923184 
L 191.836817 -76.919038 
L 191.89472 -76.913972 
L 191.952536 -76.907988 
L 192.010249 -76.901087 
L 192.067846 -76.893272 
L 192.125312 -76.884544 
L 192.182632 -76.874905 
L 192.239791 -76.864358 
L 192.296776 -76.852905 
L 192.353573 -76.84055 
L 192.410166 -76.827295 
L 192.466541 -76.813144 
L 192.522685 -76.7981 
L 192.578584 -76.782168 
L 192.634222 -76.76535 
L 192.689587 -76.747652 
L 192.744663 -76.729078 
L 192.799439 -76.709632 
L 192.853898 -76.68932 
L 192.908029 -76.668146 
L 192.961817 -76.646115 
L 193.015249 -76.623235 
L 193.06831 -76.599509 
L 193.120989 -76.574945 
L 193.173272 -76.549547 
L 193.225144 -76.523324 
L 193.276595 -76.496281 
L 193.327609 -76.468425 
L 193.378176 -76.439762 
L 193.428281 -76.410302 
L 193.477912 -76.38005 
L 193.527058 -76.349014 
L 193.575704 -76.317203 
L 193.62384 -76.284624 
L 193.671453 -76.251285 
L 193.718531 -76.217195 
L 193.765062 -76.182362 
L 193.811035 -76.146795 
L 193.856437 -76.110504 
L 193.901258 -76.073496 
L 193.945486 -76.035782 
L 193.989111 -75.997372 
L 194.03212 -75.958274 
L 194.074504 -75.918498 
L 194.116251 -75.878055 
L 194.157351 -75.836955 
L 194.197794 -75.795208 
L 194.23757 -75.752824 
L 194.276668 -75.709815 
L 194.315079 -75.66619 
L 194.352792 -75.621962 
L 194.3898 -75.577141 
L 194.426091 -75.531739 
L 194.461658 -75.485766 
L 194.496491 -75.439235 
L 194.530581 -75.392157 
L 194.56392 -75.344544 
L 194.596499 -75.296408 
L 194.62831 -75.247762 
L 194.659346 -75.198616 
L 194.689598 -75.148985 
L 194.719059 -75.09888 
L 194.747721 -75.048313 
L 194.775577 -74.997299 
L 194.80262 -74.945848 
L 194.828844 -74.893976 
L 194.854241 -74.841693 
L 194.878805 -74.789014 
L 194.902531 -74.735953 
L 194.925412 -74.682521 
L 194.947442 -74.628733 
L 194.968616 -74.574602 
L 194.988928 -74.520143 
L 195.008374 -74.465367 
L 195.026948 -74.41029 
L 195.044646 -74.354926 
L 195.061464 -74.299287 
L 195.077397 -74.243389 
L 195.09244 -74.187245 
L 195.106591 -74.130869 
L 195.119846 -74.074276 
L 195.132201 -74.01748 
L 195.143654 -73.960495 
L 195.154201 -73.903335 
L 195.16384 -73.846016 
L 195.172568 -73.78855 
L 195.180383 -73.730953 
L 195.187284 -73.67324 
L 195.193268 -73.615424 
L 195.198334 -73.557521 
L 195.20248 -73.499544 
L 195.205706 -73.441509 
L 195.208011 -73.38343 
L 195.209395 -73.325322 
L 195.209856 -73.2672 
L 195.209395 -73.209077 
L 195.208011 -73.150969 
L 195.205706 -73.09289 
L 195.20248 -73.034855 
L 195.198334 -72.976879 
L 195.193268 -72.918975 
L 195.187284 -72.861159 
L 195.180383 -72.803446 
L 195.172568 -72.745849 
L 195.16384 -72.688384 
L 195.154201 -72.631064 
L 195.143654 -72.573904 
L 195.132201 -72.516919 
L 195.119846 -72.460123 
L 195.106591 -72.40353 
L 195.09244 -72.347154 
L 195.077397 -72.29101 
L 195.061464 -72.235112 
L 195.044646 -72.179473 
L 195.026948 -72.124109 
L 195.008374 -72.069032 
L 194.988928 -72.014257 
L 194.968616 -71.959797 
L 194.947442 -71.905666 
L 194.925412 -71.851878 
L 194.902531 -71.798447 
L 194.878805 -71.745385 
L 194.854241 -71.692706 
L 194.828844 -71.640424 
L 194.80262 -71.588551 
L 194.775577 -71.537101 
L 194.747721 -71.486086 
L 194.719059 -71.43552 
L 194.689598 -71.385414 
L 194.659346 -71.335783 
L 194.62831 -71.286638 
L 194.596499 -71.237991 
L 194.56392 -71.189855 
L 194.530581 -71.142242 
L 194.496491 -71.095164 
L 194.461658 -71.048633 
L 194.426091 -71.002661 
L 194.3898 -70.957258 
L 194.352792 -70.912437 
L 194.315079 -70.868209 
L 194.276668 -70.824585 
L 194.23757 -70.781575 
L 194.197794 -70.739192 
L 194.157351 -70.697445 
L 194.116251 -70.656344 
L 194.074504 -70.615901 
L 194.03212 -70.576126 
L 193.989111 -70.537028 
L 193.945486 -70.498617 
L 193.901258 -70.460903 
L 193.856437 -70.423896 
L 193.811035 -70.387604 
L 193.765062 -70.352038 
L 193.718531 -70.317205 
L 193.671453 -70.283115 
L 193.62384 -70.249776 
L 193.575704 -70.217197 
L 193.527058 -70.185385 
L 193.477912 -70.154349 
L 193.428281 -70.124097 
L 193.378176 -70.094637 
L 193.327609 -70.065975 
L 193.276595 -70.038119 
L 193.225144 -70.011075 
L 193.173272 -69.984852 
L 193.120989 -69.959455 
L 193.06831 -69.93489 
L 193.015249 -69.911165 
L 192.961817 -69.888284 
L 192.908029 -69.866254 
L 192.853898 -69.84508 
L 192.799439 -69.824767 
L 192.744663 -69.805321 
L 192.689587 -69.786747 
L 192.634222 -69.769049 
L 192.578584 -69.752231 
L 192.522685 -69.736299 
L 192.466541 -69.721255 
L 192.410166 -69.707104 
L 192.353573 -69.693849 
L 192.296776 -69.681494 
L 192.239791 -69.670041 
L 192.182632 -69.659494 
L 192.125312 -69.649855 
L 192.067846 -69.641127 
L 192.010249 -69.633312 
L 191.952536 -69.626412 
L 191.89472 -69.620428 
L 191.836817 -69.615362 
L 191.77884 -69.611215 
L 191.720805 -69.607989 
L 191.662727 -69.605684 
L 191.604618 -69.604301 
L 191.546496 -69.60384 
L 178.3584 -69.60384 
L 178.3584 -73.2672 
" style="stroke: #000000; stroke-width: 2"/>
    </defs>
    <g clip-path="url(#pbddc0735e5)">
     <use xlink:href="#me31d7b4b22" x="0" y="345.6" style="fill: #8e8e8e; stroke: #000000; stroke-width: 2"/>
    </g>
   </g>
   <g id="PatchCollection_3">
    <defs>
     <path id="mde05c0e45a" d="M 178.3584 -36.633599 
L 178.3584 -40.296959 
L 194.84352 -40.296959 
L 194.901642 -40.296498 
L 194.959751 -40.295115 
L 195.017829 -40.29281 
L 195.075864 -40.289584 
L 195.133841 -40.285437 
L 195.191744 -40.280371 
L 195.24956 -40.274387 
L 195.307273 -40.267487 
L 195.36487 -40.259672 
L 195.422336 -40.250943 
L 195.479656 -40.241305 
L 195.536815 -40.230758 
L 195.5938 -40.219305 
L 195.650597 -40.20695 
L 195.70719 -40.193695 
L 195.763565 -40.179544 
L 195.819709 -40.1645 
L 195.875608 -40.148567 
L 195.931246 -40.13175 
L 195.986611 -40.114052 
L 196.041687 -40.095478 
L 196.096463 -40.076032 
L 196.150922 -40.055719 
L 196.205053 -40.034545 
L 196.258841 -40.012515 
L 196.312273 -39.989634 
L 196.365335 -39.965909 
L 196.418013 -39.941344 
L 196.470296 -39.915947 
L 196.522168 -39.889724 
L 196.573619 -39.86268 
L 196.624633 -39.834824 
L 196.6752 -39.806162 
L 196.725305 -39.776701 
L 196.774936 -39.746449 
L 196.824082 -39.715414 
L 196.872728 -39.683602 
L 196.920864 -39.651023 
L 196.968477 -39.617684 
L 197.015555 -39.583594 
L 197.062086 -39.548761 
L 197.108059 -39.513195 
L 197.153461 -39.476903 
L 197.198282 -39.439896 
L 197.24251 -39.402182 
L 197.286135 -39.363771 
L 197.329144 -39.324673 
L 197.371528 -39.284898 
L 197.413275 -39.244455 
L 197.454375 -39.203354 
L 197.494818 -39.161607 
L 197.534594 -39.119224 
L 197.573692 -39.076214 
L 197.612103 -39.03259 
L 197.649816 -38.988362 
L 197.686824 -38.943541 
L 197.723115 -38.898138 
L 197.758682 -38.852166 
L 197.793515 -38.805634 
L 197.827605 -38.758557 
L 197.860944 -38.710944 
L 197.893523 -38.662808 
L 197.925334 -38.614161 
L 197.95637 -38.565016 
L 197.986622 -38.515384 
L 198.016083 -38.465279 
L 198.044745 -38.414713 
L 198.072601 -38.363698 
L 198.099644 -38.312248 
L 198.125868 -38.260375 
L 198.151265 -38.208093 
L 198.175829 -38.155414 
L 198.199555 -38.102352 
L 198.222436 -38.048921 
L 198.244466 -37.995133 
L 198.26564 -37.941002 
L 198.285952 -37.886542 
L 198.305398 -37.831767 
L 198.323972 -37.77669 
L 198.34167 -37.721326 
L 198.358488 -37.665687 
L 198.374421 -37.609789 
L 198.389464 -37.553645 
L 198.403615 -37.497269 
L 198.41687 -37.440676 
L 198.429226 -37.38388 
L 198.440678 -37.326895 
L 198.451225 -37.269735 
L 198.460864 -37.212415 
L 198.469592 -37.15495 
L 198.477407 -37.097353 
L 198.484308 -37.039639 
L 198.490292 -36.981824 
L 198.495358 -36.92392 
L 198.499504 -36.865944 
L 198.50273 -36.807909 
L 198.505035 -36.74983 
L 198.506419 -36.691722 
L 198.50688 -36.633599 
L 198.506419 -36.575477 
L 198.505035 -36.517368 
L 198.50273 -36.45929 
L 198.499504 -36.401255 
L 198.495358 -36.343278 
L 198.490292 -36.285375 
L 198.484308 -36.227559 
L 198.477407 -36.169846 
L 198.469592 -36.112249 
L 198.460864 -36.054783 
L 198.451225 -35.997463 
L 198.440678 -35.940304 
L 198.429226 -35.883319 
L 198.41687 -35.826522 
L 198.403615 -35.769929 
L 198.389464 -35.713554 
L 198.374421 -35.65741 
L 198.358488 -35.601511 
L 198.34167 -35.545873 
L 198.323972 -35.490508 
L 198.305398 -35.435432 
L 198.285952 -35.380656 
L 198.26564 -35.326197 
L 198.244466 -35.272066 
L 198.222436 -35.218278 
L 198.199555 -35.164846 
L 198.175829 -35.111785 
L 198.151265 -35.059106 
L 198.125868 -35.006823 
L 198.099644 -34.954951 
L 198.072601 -34.9035 
L 198.044745 -34.852486 
L 198.016083 -34.801919 
L 197.986622 -34.751814 
L 197.95637 -34.702183 
L 197.925334 -34.653037 
L 197.893523 -34.604391 
L 197.860944 -34.556255 
L 197.827605 -34.508642 
L 197.793515 -34.461564 
L 197.758682 -34.415033 
L 197.723115 -34.36906 
L 197.686824 -34.323658 
L 197.649816 -34.278837 
L 197.612103 -34.234609 
L 197.573692 -34.190984 
L 197.534594 -34.147975 
L 197.494818 -34.105591 
L 197.454375 -34.063844 
L 197.413275 -34.022744 
L 197.371528 -33.982301 
L 197.329144 -33.942525 
L 197.286135 -33.903427 
L 197.24251 -33.865016 
L 197.198282 -33.827303 
L 197.153461 -33.790295 
L 197.108059 -33.754004 
L 197.062086 -33.718437 
L 197.015555 -33.683604 
L 196.968477 -33.649514 
L 196.920864 -33.616175 
L 196.872728 -33.583596 
L 196.824082 -33.551785 
L 196.774936 -33.520749 
L 196.725305 -33.490497 
L 196.6752 -33.461036 
L 196.624633 -33.432374 
L 196.573619 -33.404518 
L 196.522168 -33.377475 
L 196.470296 -33.351251 
L 196.418013 -33.325854 
L 196.365335 -33.30129 
L 196.312273 -33.277564 
L 196.258841 -33.254683 
L 196.205053 -33.232653 
L 196.150922 -33.211479 
L 196.096463 -33.191167 
L 196.041687 -33.171721 
L 195.986611 -33.153147 
L 195.931246 -33.135449 
L 195.875608 -33.118631 
L 195.819709 -33.102698 
L 195.763565 -33.087655 
L 195.70719 -33.073504 
L 195.650597 -33.060249 
L 195.5938 -33.047894 
L 195.536815 -33.036441 
L 195.479656 -33.025894 
L 195.422336 -33.016255 
L 195.36487 -33.007527 
L 195.307273 -32.999712 
L 195.24956 -32.992811 
L 195.191744 -32.986827 
L 195.133841 -32.981761 
L 195.075864 -32.977615 
L 195.017829 -32.974389 
L 194.959751 -32.972084 
L 194.901642 -32.9707 
L 194.84352 -32.970239 
L 178.3584 -32.970239 
L 178.3584 -36.633599 
" style="stroke: #000000; stroke-width: 2"/>
    </defs>
    <g clip-path="url(#pbddc0735e5)">
     <use xlink:href="#mde05c0e45a" x="0" y="345.6" style="fill: #8e8e8e; stroke: #000000; stroke-width: 2"/>
    </g>
   </g>
   <g id="line2d_1">
    <path d="M 178.3584 345.600001 
L 461.8 345.600001 
" clip-path="url(#pbddc0735e5)" style="fill: none; stroke: #000000; stroke-width: 8; stroke-linecap: round"/>
   </g>
   <g id="line2d_2">
    <path clip-path="url(#pbddc0735e5)" style="fill: none; stroke: #000000; stroke-width: 8; stroke-linecap: round"/>
   </g>
   <g id="line2d_3">
    <path clip-path="url(#pbddc0735e5)" style="fill: none; stroke: #000000; stroke-width: 8; stroke-linecap: round"/>
   </g>
   <g id="line2d_4">
    <path d="M 461.8 235.6992 
L 178.3584 235.6992 
" clip-path="url(#pbddc0735e5)" style="fill: none; stroke: #000000; stroke-width: 8; stroke-linecap: round"/>
   </g>
   <g id="line2d_5">
    <path d="M 178.3584 235.6992 
L 178.3584 272.3328 
" clip-path="url(#pbddc0735e5)" style="fill: none; stroke: #000000; stroke-width: 8; stroke-linecap: round"/>
   </g>
   <g id="line2d_6">
    <path d="M 178.3584 272.3328 
L 178.3584 308.966401 
" clip-path="url(#pbddc0735e5)" style="fill: none; stroke: #000000; stroke-width: 8; stroke-linecap: round"/>
   </g>
   <g id="line2d_7">
    <path d="M 178.3584 308.966401 
L 178.3584 345.600001 
" clip-path="url(#pbddc0735e5)" style="fill: none; stroke: #000000; stroke-width: 8; stroke-linecap: round"/>
   </g>
  </g>
 </g>
 <defs>
  <clipPath id="pbddc0735e5">
   <rect x="178.3584" y="235.6992" width="82.425601" height="109.9008"/>
  </clipPath>
 </defs>
</svg>
