<?xml version="1.0" encoding="utf-8" standalone="no"?>
<!DOCTYPE svg PUBLIC "-//W3C//DTD SVG 1.1//EN"
  "http://www.w3.org/Graphics/SVG/1.1/DTD/svg11.dtd">
<svg xmlns:xlink="http://www.w3.org/1999/xlink" width="460.8pt" height="345.6pt" viewBox="0 0 460.8 345.6" xmlns="http://www.w3.org/2000/svg" version="1.1">
 <metadata>
  <rdf:RDF xmlns:dc="http://purl.org/dc/elements/1.1/" xmlns:cc="http://creativecommons.org/ns#" xmlns:rdf="http://www.w3.org/1999/02/22-rdf-syntax-ns#">
   <cc:Work>
    <dc:type rdf:resource="http://purl.org/dc/dcmitype/StillImage"/>
    <dc:date>2024-05-28T13:34:22.125181</dc:date>
    <dc:format>image/svg+xml</dc:format>
    <dc:creator>
     <cc:Agent>
      <dc:title>Matplotlib v3.7.1, https://matplotlib.org/</dc:title>
     </cc:Agent>
    </dc:creator>
   </cc:Work>
  </rdf:RDF>
 </metadata>
 <defs>
  <style type="text/css">*{stroke-linejoin: round; stroke-linecap: butt}</style>
 </defs>
 <g id="figure_1">
  <g id="axes_1">
   <g id="PatchCollection_1">
    <path d="M 178.3584 345.600001 
L 508.060803 345.600001 
L 508.060803 307.969405 
L 508.060803 235.6992 
L 178.3584 235.6992 
L 178.3584 272.3328 
L 178.3584 308.966401 
L 178.3584 345.600001 
" clip-path="url(#pe7e09cb33d)" style="fill: #f2f2f2"/>
   </g>
   <g id="PatchCollection_2">
    <defs>
     <path id="m69e5f274b4" d="M 178.3584 -73.2672 
L 178.3584 -76.93056 
L 179.017804 -76.93056 
L 179.075927 -76.930099 
L 179.134035 -76.928715 
L 179.192114 -76.92641 
L 179.250149 -76.923184 
L 179.308126 -76.919038 
L 179.366029 -76.913972 
L 179.423845 -76.907988 
L 179.481558 -76.901087 
L 179.539155 -76.893272 
L 179.59662 -76.884544 
L 179.65394 -76.874905 
L 179.7111 -76.864358 
L 179.768085 -76.852905 
L 179.824881 -76.84055 
L 179.881474 -76.827295 
L 179.93785 -76.813144 
L 179.993994 -76.7981 
L 180.049892 -76.782168 
L 180.105531 -76.76535 
L 180.160895 -76.747652 
L 180.215972 -76.729078 
L 180.270747 -76.709632 
L 180.325207 -76.68932 
L 180.379338 -76.668146 
L 180.433126 -76.646115 
L 180.486557 -76.623235 
L 180.539619 -76.599509 
L 180.592298 -76.574945 
L 180.64458 -76.549547 
L 180.696453 -76.523324 
L 180.747903 -76.496281 
L 180.798918 -76.468425 
L 180.849484 -76.439762 
L 180.89959 -76.410302 
L 180.949221 -76.38005 
L 180.998366 -76.349014 
L 181.047013 -76.317203 
L 181.095149 -76.284624 
L 181.142762 -76.251285 
L 181.18984 -76.217195 
L 181.236371 -76.182362 
L 181.282343 -76.146795 
L 181.327746 -76.110504 
L 181.372567 -76.073496 
L 181.416795 -76.035782 
L 181.460419 -75.997372 
L 181.503429 -75.958274 
L 181.545812 -75.918498 
L 181.587559 -75.878055 
L 181.62866 -75.836955 
L 181.669103 -75.795208 
L 181.708878 -75.752824 
L 181.747976 -75.709815 
L 181.786387 -75.66619 
L 181.824101 -75.621962 
L 181.861108 -75.577141 
L 181.8974 -75.531739 
L 181.932967 -75.485766 
L 181.967799 -75.439235 
L 182.001889 -75.392157 
L 182.035228 -75.344544 
L 182.067808 -75.296408 
L 182.099619 -75.247762 
L 182.130655 -75.198616 
L 182.160907 -75.148985 
L 182.190367 -75.09888 
L 182.219029 -75.048313 
L 182.246885 -74.997299 
L 182.273929 -74.945848 
L 182.300152 -74.893976 
L 182.325549 -74.841693 
L 182.350114 -74.789014 
L 182.37384 -74.735953 
L 182.39672 -74.682521 
L 182.41875 -74.628733 
L 182.439924 -74.574602 
L 182.460237 -74.520143 
L 182.479683 -74.465367 
L 182.498257 -74.41029 
L 182.515955 -74.354926 
L 182.532773 -74.299287 
L 182.548705 -74.243389 
L 182.563749 -74.187245 
L 182.5779 -74.130869 
L 182.591155 -74.074276 
L 182.60351 -74.01748 
L 182.614963 -73.960495 
L 182.62551 -73.903335 
L 182.635149 -73.846016 
L 182.643877 -73.78855 
L 182.651692 -73.730953 
L 182.658593 -73.67324 
L 182.664576 -73.615424 
L 182.669642 -73.557521 
L 182.673789 -73.499544 
L 182.677015 -73.441509 
L 182.67932 -73.38343 
L 182.680703 -73.325322 
L 182.681164 -73.2672 
L 182.680703 -73.209077 
L 182.67932 -73.150969 
L 182.677015 -73.09289 
L 182.673789 -73.034855 
L 182.669642 -72.976879 
L 182.664576 -72.918975 
L 182.658593 -72.861159 
L 182.651692 -72.803446 
L 182.643877 -72.745849 
L 182.635149 -72.688384 
L 182.62551 -72.631064 
L 182.614963 -72.573904 
L 182.60351 -72.516919 
L 182.591155 -72.460123 
L 182.5779 -72.40353 
L 182.563749 -72.347154 
L 182.548705 -72.29101 
L 182.532773 -72.235112 
L 182.515955 -72.179473 
L 182.498257 -72.124109 
L 182.479683 -72.069032 
L 182.460237 -72.014257 
L 182.439924 -71.959797 
L 182.41875 -71.905666 
L 182.39672 -71.851878 
L 182.37384 -71.798447 
L 182.350114 -71.745385 
L 182.325549 -71.692706 
L 182.300152 -71.640424 
L 182.273929 -71.588551 
L 182.246885 -71.537101 
L 182.219029 -71.486086 
L 182.190367 -71.43552 
L 182.160907 -71.385414 
L 182.130655 -71.335783 
L 182.099619 -71.286638 
L 182.067808 -71.237991 
L 182.035228 -71.189855 
L 182.001889 -71.142242 
L 181.967799 -71.095164 
L 181.932967 -71.048633 
L 181.8974 -71.002661 
L 181.861108 -70.957258 
L 181.824101 -70.912437 
L 181.786387 -70.868209 
L 181.747976 -70.824585 
L 181.708878 -70.781575 
L 181.669103 -70.739192 
L 181.62866 -70.697445 
L 181.587559 -70.656344 
L 181.545812 -70.615901 
L 181.503429 -70.576126 
L 181.460419 -70.537028 
L 181.416795 -70.498617 
L 181.372567 -70.460903 
L 181.327746 -70.423896 
L 181.282343 -70.387604 
L 181.236371 -70.352038 
L 181.18984 -70.317205 
L 181.142762 -70.283115 
L 181.095149 -70.249776 
L 181.047013 -70.217197 
L 180.998366 -70.185385 
L 180.949221 -70.154349 
L 180.89959 -70.124097 
L 180.849484 -70.094637 
L 180.798918 -70.065975 
L 180.747903 -70.038119 
L 180.696453 -70.011075 
L 180.64458 -69.984852 
L 180.592298 -69.959455 
L 180.539619 -69.93489 
L 180.486557 -69.911165 
L 180.433126 -69.888284 
L 180.379338 -69.866254 
L 180.325207 -69.84508 
L 180.270747 -69.824767 
L 180.215972 -69.805321 
L 180.160895 -69.786747 
L 180.105531 -69.769049 
L 180.049892 -69.752231 
L 179.993994 -69.736299 
L 179.93785 -69.721255 
L 179.881474 -69.707104 
L 179.824881 -69.693849 
L 179.768085 -69.681494 
L 179.7111 -69.670041 
L 179.65394 -69.659494 
L 179.59662 -69.649855 
L 179.539155 -69.641127 
L 179.481558 -69.633312 
L 179.423845 -69.626412 
L 179.366029 -69.620428 
L 179.308126 -69.615362 
L 179.250149 -69.611215 
L 179.192114 -69.607989 
L 179.134035 -69.605684 
L 179.075927 -69.604301 
L 179.017804 -69.60384 
L 178.3584 -69.60384 
L 178.3584 -73.2672 
" style="stroke: #000000; stroke-width: 2"/>
    </defs>
    <g clip-path="url(#pe7e09cb33d)">
     <use xlink:href="#m69e5f274b4" x="0" y="345.6" style="fill: #8e8e8e; stroke: #000000; stroke-width: 2"/>
    </g>
   </g>
   <g id="PatchCollection_3">
    <defs>
     <path id="mcd2bb905a5" d="M 178.3584 -36.633599 
L 178.3584 -40.296959 
L 237.704832 -40.296959 
L 237.762955 -40.296498 
L 237.821063 -40.295115 
L 237.879142 -40.29281 
L 237.937177 -40.289584 
L 237.995153 -40.285437 
L 238.053057 -40.280371 
L 238.110872 -40.274387 
L 238.168586 -40.267487 
L 238.226183 -40.259672 
L 238.283648 -40.250943 
L 238.340968 -40.241305 
L 238.398128 -40.230758 
L 238.455113 -40.219305 
L 238.511909 -40.20695 
L 238.568502 -40.193695 
L 238.624878 -40.179544 
L 238.681022 -40.1645 
L 238.73692 -40.148567 
L 238.792558 -40.13175 
L 238.847923 -40.114052 
L 238.903 -40.095478 
L 238.957775 -40.076032 
L 239.012235 -40.055719 
L 239.066366 -40.034545 
L 239.120153 -40.012515 
L 239.173585 -39.989634 
L 239.226647 -39.965909 
L 239.279326 -39.941344 
L 239.331608 -39.915947 
L 239.383481 -39.889724 
L 239.434931 -39.86268 
L 239.485946 -39.834824 
L 239.536512 -39.806162 
L 239.586617 -39.776701 
L 239.636249 -39.746449 
L 239.685394 -39.715414 
L 239.734041 -39.683602 
L 239.782177 -39.651023 
L 239.829789 -39.617684 
L 239.876867 -39.583594 
L 239.923399 -39.548761 
L 239.969371 -39.513195 
L 240.014774 -39.476903 
L 240.059595 -39.439896 
L 240.103823 -39.402182 
L 240.147447 -39.363771 
L 240.190456 -39.324673 
L 240.23284 -39.284898 
L 240.274587 -39.244455 
L 240.315688 -39.203354 
L 240.356131 -39.161607 
L 240.395906 -39.119224 
L 240.435004 -39.076214 
L 240.473415 -39.03259 
L 240.511129 -38.988362 
L 240.548136 -38.943541 
L 240.584428 -38.898138 
L 240.619994 -38.852166 
L 240.654827 -38.805634 
L 240.688917 -38.758557 
L 240.722256 -38.710944 
L 240.754835 -38.662808 
L 240.786647 -38.614161 
L 240.817682 -38.565016 
L 240.847934 -38.515384 
L 240.877395 -38.465279 
L 240.906057 -38.414713 
L 240.933913 -38.363698 
L 240.960956 -38.312248 
L 240.98718 -38.260375 
L 241.012577 -38.208093 
L 241.037142 -38.155414 
L 241.060867 -38.102352 
L 241.083748 -38.048921 
L 241.105778 -37.995133 
L 241.126952 -37.941002 
L 241.147265 -37.886542 
L 241.16671 -37.831767 
L 241.185285 -37.77669 
L 241.202983 -37.721326 
L 241.2198 -37.665687 
L 241.235733 -37.609789 
L 241.250777 -37.553645 
L 241.264928 -37.497269 
L 241.278183 -37.440676 
L 241.290538 -37.38388 
L 241.301991 -37.326895 
L 241.312538 -37.269735 
L 241.322176 -37.212415 
L 241.330904 -37.15495 
L 241.33872 -37.097353 
L 241.34562 -37.039639 
L 241.351604 -36.981824 
L 241.35667 -36.92392 
L 241.360817 -36.865944 
L 241.364043 -36.807909 
L 241.366348 -36.74983 
L 241.367731 -36.691722 
L 241.368192 -36.633599 
L 241.367731 -36.575477 
L 241.366348 -36.517368 
L 241.364043 -36.45929 
L 241.360817 -36.401255 
L 241.35667 -36.343278 
L 241.351604 -36.285375 
L 241.34562 -36.227559 
L 241.33872 -36.169846 
L 241.330904 -36.112249 
L 241.322176 -36.054783 
L 241.312538 -35.997463 
L 241.301991 -35.940304 
L 241.290538 -35.883319 
L 241.278183 -35.826522 
L 241.264928 -35.769929 
L 241.250777 -35.713554 
L 241.235733 -35.65741 
L 241.2198 -35.601511 
L 241.202983 -35.545873 
L 241.185285 -35.490508 
L 241.16671 -35.435432 
L 241.147265 -35.380656 
L 241.126952 -35.326197 
L 241.105778 -35.272066 
L 241.083748 -35.218278 
L 241.060867 -35.164846 
L 241.037142 -35.111785 
L 241.012577 -35.059106 
L 240.98718 -35.006823 
L 240.960956 -34.954951 
L 240.933913 -34.9035 
L 240.906057 -34.852486 
L 240.877395 -34.801919 
L 240.847934 -34.751814 
L 240.817682 -34.702183 
L 240.786647 -34.653037 
L 240.754835 -34.604391 
L 240.722256 -34.556255 
L 240.688917 -34.508642 
L 240.654827 -34.461564 
L 240.619994 -34.415033 
L 240.584428 -34.36906 
L 240.548136 -34.323658 
L 240.511129 -34.278837 
L 240.473415 -34.234609 
L 240.435004 -34.190984 
L 240.395906 -34.147975 
L 240.356131 -34.105591 
L 240.315688 -34.063844 
L 240.274587 -34.022744 
L 240.23284 -33.982301 
L 240.190456 -33.942525 
L 240.147447 -33.903427 
L 240.103823 -33.865016 
L 240.059595 -33.827303 
L 240.014774 -33.790295 
L 239.969371 -33.754004 
L 239.923399 -33.718437 
L 239.876867 -33.683604 
L 239.829789 -33.649514 
L 239.782177 -33.616175 
L 239.734041 -33.583596 
L 239.685394 -33.551785 
L 239.636249 -33.520749 
L 239.586617 -33.490497 
L 239.536512 -33.461036 
L 239.485946 -33.432374 
L 239.434931 -33.404518 
L 239.383481 -33.377475 
L 239.331608 -33.351251 
L 239.279326 -33.325854 
L 239.226647 -33.30129 
L 239.173585 -33.277564 
L 239.120153 -33.254683 
L 239.066366 -33.232653 
L 239.012235 -33.211479 
L 238.957775 -33.191167 
L 238.903 -33.171721 
L 238.847923 -33.153147 
L 238.792558 -33.135449 
L 238.73692 -33.118631 
L 238.681022 -33.102698 
L 238.624878 -33.087655 
L 238.568502 -33.073504 
L 238.511909 -33.060249 
L 238.455113 -33.047894 
L 238.398128 -33.036441 
L 238.340968 -33.025894 
L 238.283648 -33.016255 
L 238.226183 -33.007527 
L 238.168586 -32.999712 
L 238.110872 -32.992811 
L 238.053057 -32.986827 
L 237.995153 -32.981761 
L 237.937177 -32.977615 
L 237.879142 -32.974389 
L 237.821063 -32.972084 
L 237.762955 -32.9707 
L 237.704832 -32.970239 
L 178.3584 -32.970239 
L 178.3584 -36.633599 
" style="stroke: #000000; stroke-width: 2"/>
    </defs>
    <g clip-path="url(#pe7e09cb33d)">
     <use xlink:href="#mcd2bb905a5" x="0" y="345.6" style="fill: #8e8e8e; stroke: #000000; stroke-width: 2"/>
    </g>
   </g>
   <g id="line2d_1">
    <path d="M 178.3584 345.600001 
L 461.8 345.600001 
" clip-path="url(#pe7e09cb33d)" style="fill: none; stroke: #000000; stroke-width: 8; stroke-linecap: round"/>
   </g>
   <g id="line2d_2">
    <path clip-path="url(#pe7e09cb33d)" style="fill: none; stroke: #000000; stroke-width: 8; stroke-linecap: round"/>
   </g>
   <g id="line2d_3">
    <path clip-path="url(#pe7e09cb33d)" style="fill: none; stroke: #000000; stroke-width: 8; stroke-linecap: round"/>
   </g>
   <g id="line2d_4">
    <path d="M 461.8 235.6992 
L 178.3584 235.6992 
" clip-path="url(#pe7e09cb33d)" style="fill: none; stroke: #000000; stroke-width: 8; stroke-linecap: round"/>
   </g>
   <g id="line2d_5">
    <path d="M 178.3584 235.6992 
L 178.3584 272.3328 
" clip-path="url(#pe7e09cb33d)" style="fill: none; stroke: #000000; stroke-width: 8; stroke-linecap: round"/>
   </g>
   <g id="line2d_6">
    <path d="M 178.3584 272.3328 
L 178.3584 308.966401 
" clip-path="url(#pe7e09cb33d)" style="fill: none; stroke: #000000; stroke-width: 8; stroke-linecap: round"/>
   </g>
   <g id="line2d_7">
    <path d="M 178.3584 308.966401 
L 178.3584 345.600001 
" clip-path="url(#pe7e09cb33d)" style="fill: none; stroke: #000000; stroke-width: 8; stroke-linecap: round"/>
   </g>
  </g>
 </g>
 <defs>
  <clipPath id="pe7e09cb33d">
   <rect x="178.3584" y="235.6992" width="82.425601" height="109.9008"/>
  </clipPath>
 </defs>
</svg>
