<?xml version="1.0" encoding="utf-8" standalone="no"?>
<!DOCTYPE svg PUBLIC "-//W3C//DTD SVG 1.1//EN"
  "http://www.w3.org/Graphics/SVG/1.1/DTD/svg11.dtd">
<svg xmlns:xlink="http://www.w3.org/1999/xlink" width="460.8pt" height="345.6pt" viewBox="0 0 460.8 345.6" xmlns="http://www.w3.org/2000/svg" version="1.1">
 <metadata>
  <rdf:RDF xmlns:dc="http://purl.org/dc/elements/1.1/" xmlns:cc="http://creativecommons.org/ns#" xmlns:rdf="http://www.w3.org/1999/02/22-rdf-syntax-ns#">
   <cc:Work>
    <dc:type rdf:resource="http://purl.org/dc/dcmitype/StillImage"/>
    <dc:date>2024-05-28T13:34:22.169716</dc:date>
    <dc:format>image/svg+xml</dc:format>
    <dc:creator>
     <cc:Agent>
      <dc:title>Matplotlib v3.7.1, https://matplotlib.org/</dc:title>
     </cc:Agent>
    </dc:creator>
   </cc:Work>
  </rdf:RDF>
 </metadata>
 <defs>
  <style type="text/css">*{stroke-linejoin: round; stroke-linecap: butt}</style>
 </defs>
 <g id="figure_1">
  <g id="axes_1">
   <g id="PatchCollection_1">
    <path d="M 161.873279 345.600001 
L 491.575683 345.600001 
L 491.575683 308.033889 
L 491.575683 235.6992 
L 161.873279 235.6992 
L 161.873279 272.3328 
L 161.873279 308.966401 
L 161.873279 345.600001 
" clip-path="url(#p8537b09c30)" style="fill: #f2f2f2"/>
   </g>
   <g id="PatchCollection_2">
    <defs>
     <path id="mdc9b2d31df" d="M 161.873279 -73.2672 
L 161.873279 -76.93056 
L 162.364276 -76.93056 
L 162.373989 -76.931437 
L 162.403986 -76.934184 
L 162.436322 -76.937338 
L 162.477513 -76.941121 
L 162.506043 -76.943579 
L 162.534504 -76.946259 
L 162.577719 -76.950325 
L 162.590928 -76.951544 
L 162.626792 -76.954788 
L 162.662608 -76.958166 
L 162.671017 -76.958949 
L 162.713777 -76.962883 
L 162.731898 -76.964505 
L 162.76244 -76.967162 
L 162.792906 -76.970018 
L 162.799751 -76.970653 
L 162.842169 -76.974548 
L 162.88183 -76.978195 
L 162.92163 -76.981913 
L 162.956557 -76.985167 
L 162.990499 -76.988487 
L 162.999971 -76.989401 
L 163.042237 -76.993424 
L 163.050864 -76.994235 
L 163.093085 -76.998153 
L 163.136519 -77.002169 
L 163.143872 -77.002841 
L 163.185995 -77.006649 
L 163.192128 -77.007199 
L 163.222001 -77.009849 
L 163.251764 -77.01269 
L 163.25928 -77.013399 
L 163.297757 -77.016992 
L 163.333611 -77.020407 
L 163.372792 -77.024193 
L 163.396467 -77.026404 
L 163.421523 -77.028661 
L 163.446494 -77.031141 
L 163.463373 -77.032778 
L 163.503906 -77.036613 
L 163.544367 -77.040464 
L 163.552182 -77.0412 
L 163.590996 -77.04481 
L 163.627575 -77.048265 
L 163.666652 -77.052002 
L 163.705658 -77.055717 
L 163.743182 -77.059365 
L 163.75316 -77.060322 
L 163.790472 -77.063846 
L 163.82712 -77.067383 
L 163.867428 -77.071286 
L 163.875326 -77.072042 
L 163.912498 -77.07556 
L 163.949601 -77.079145 
L 163.962923 -77.080408 
L 163.997683 -77.083639 
L 164.03236 -77.086976 
L 164.036102 -77.087334 
L 164.074866 -77.091024 
L 164.113553 -77.094745 
L 164.149936 -77.098061 
L 164.172135 -77.099972 
L 164.191708 -77.101855 
L 164.229397 -77.105533 
L 164.249876 -77.107473 
L 164.284337 -77.110641 
L 164.318721 -77.11391 
L 164.324426 -77.114448 
L 164.364449 -77.118191 
L 164.37174 -77.118865 
L 164.408009 -77.122183 
L 164.441085 -77.125277 
L 164.47781 -77.128775 
L 164.482028 -77.129175 
L 164.52178 -77.132915 
L 164.532276 -77.133887 
L 164.563943 -77.136774 
L 164.595536 -77.139795 
L 164.615879 -77.141683 
L 164.646953 -77.144479 
L 164.676968 -77.147321 
L 164.715015 -77.150944 
L 164.753976 -77.154662 
L 164.781917 -77.15722 
L 164.80909 -77.159603 
L 164.835979 -77.162142 
L 164.874909 -77.165821 
L 164.900129 -77.168117 
L 164.928733 -77.170621 
L 164.957268 -77.173285 
L 164.964432 -77.173946 
L 165.003387 -77.177505 
L 165.040878 -77.180923 
L 165.077564 -77.184311 
L 165.08613 -77.185091 
L 165.124909 -77.188581 
L 165.160569 -77.191779 
L 165.194108 -77.194862 
L 165.231618 -77.198333 
L 165.243419 -77.199405 
L 165.277421 -77.20244 
L 165.310772 -77.2055 
L 165.348572 -77.208981 
L 165.388711 -77.212657 
L 165.407616 -77.214339 
L 165.437547 -77.216923 
L 165.46741 -77.21964 
L 165.506904 -77.223218 
L 165.547297 -77.226853 
L 165.56073 -77.228037 
L 165.59334 -77.23085 
L 165.62588 -77.233755 
L 165.632138 -77.234308 
L 165.670065 -77.237629 
L 165.68932 -77.239263 
L 165.721658 -77.241922 
L 165.753141 -77.244608 
L 165.789664 -77.247739 
L 165.826913 -77.250943 
L 165.862656 -77.254012 
L 165.89791 -77.257085 
L 165.935447 -77.260357 
L 165.945688 -77.261236 
L 165.97876 -77.264025 
L 166.011768 -77.26689 
L 166.025351 -77.268043 
L 166.058191 -77.27077 
L 166.090979 -77.273575 
L 166.103177 -77.274598 
L 166.140471 -77.277663 
L 166.152247 -77.278611 
L 166.178249 -77.280664 
L 166.204211 -77.282874 
L 166.214876 -77.283766 
L 166.245466 -77.28628 
L 166.276006 -77.288901 
L 166.295278 -77.290503 
L 166.325322 -77.292921 
L 166.355333 -77.295452 
L 166.370619 -77.29671 
L 166.40339 -77.299335 
L 166.433636 -77.301829 
L 166.467994 -77.304708 
L 166.505028 -77.30781 
L 166.5158 -77.308696 
L 166.550758 -77.311519 
L 166.585685 -77.314375 
L 166.643652 -77.318653 
L 166.701679 -77.32201 
L 166.759753 -77.324446 
L 166.817857 -77.32596 
L 166.875979 -77.326552 
L 166.934103 -77.326222 
L 166.992214 -77.32497 
L 167.050298 -77.322796 
L 167.10834 -77.319701 
L 167.166325 -77.315685 
L 167.22424 -77.31075 
L 167.282069 -77.304896 
L 167.339798 -77.298126 
L 167.397412 -77.290441 
L 167.454897 -77.281842 
L 167.512239 -77.272333 
L 167.569422 -77.261915 
L 167.626433 -77.250591 
L 167.683257 -77.238364 
L 167.73988 -77.225236 
L 167.796287 -77.211213 
L 167.852465 -77.196296 
L 167.908399 -77.180489 
L 167.964075 -77.163797 
L 168.01948 -77.146224 
L 168.074598 -77.127774 
L 168.129417 -77.108452 
L 168.183923 -77.088262 
L 168.238101 -77.06721 
L 168.291938 -77.045301 
L 168.345421 -77.022541 
L 168.398537 -76.998935 
L 168.451271 -76.97449 
L 168.50361 -76.949211 
L 168.555542 -76.923104 
L 168.607053 -76.896177 
L 168.658131 -76.868436 
L 168.708761 -76.839888 
L 168.758933 -76.810541 
L 168.808633 -76.780401 
L 168.857848 -76.749476 
L 168.906566 -76.717774 
L 168.954775 -76.685304 
L 169.002463 -76.652072 
L 169.049618 -76.618089 
L 169.096227 -76.583361 
L 169.14228 -76.547898 
L 169.187764 -76.511709 
L 169.232669 -76.474803 
L 169.276982 -76.437189 
L 169.320693 -76.398877 
L 169.36379 -76.359876 
L 169.406263 -76.320196 
L 169.448102 -76.279847 
L 169.489295 -76.23884 
L 169.529832 -76.197184 
L 169.569703 -76.15489 
L 169.608898 -76.111969 
L 169.647407 -76.068431 
L 169.68522 -76.024288 
L 169.722329 -75.979551 
L 169.758723 -75.93423 
L 169.794393 -75.888338 
L 169.82933 -75.841886 
L 169.863527 -75.794885 
L 169.896973 -75.747347 
L 169.929661 -75.699285 
L 169.961582 -75.65071 
L 169.992728 -75.601635 
L 170.023092 -75.552072 
L 170.052666 -75.502034 
L 170.081442 -75.451532 
L 170.109413 -75.40058 
L 170.136572 -75.349191 
L 170.162912 -75.297378 
L 170.188428 -75.245153 
L 170.213111 -75.192529 
L 170.236956 -75.139521 
L 170.259957 -75.086141 
L 170.282109 -75.032403 
L 170.303405 -74.978321 
L 170.32384 -74.923907 
L 170.343409 -74.869175 
L 170.362108 -74.814141 
L 170.379931 -74.758816 
L 170.396874 -74.703216 
L 170.412932 -74.647354 
L 170.428103 -74.591244 
L 170.442381 -74.5349 
L 170.455764 -74.478337 
L 170.468247 -74.421569 
L 170.479828 -74.36461 
L 170.490504 -74.307474 
L 170.500272 -74.250176 
L 170.50913 -74.19273 
L 170.517075 -74.135151 
L 170.524106 -74.077454 
L 170.53022 -74.019652 
L 170.535416 -73.96176 
L 170.539694 -73.903793 
L 170.543051 -73.845765 
L 170.545487 -73.787692 
L 170.547001 -73.729587 
L 170.547593 -73.671465 
L 170.547263 -73.613342 
L 170.546011 -73.555231 
L 170.543837 -73.497147 
L 170.540742 -73.439105 
L 170.536726 -73.381119 
L 170.531791 -73.323204 
L 170.525937 -73.265375 
L 170.519167 -73.207646 
L 170.511482 -73.150032 
L 170.502883 -73.092547 
L 170.493374 -73.035206 
L 170.482956 -72.978022 
L 170.471632 -72.921011 
L 170.459405 -72.864188 
L 170.446278 -72.807565 
L 170.432254 -72.751157 
L 170.417337 -72.694979 
L 170.40153 -72.639045 
L 170.384838 -72.583369 
L 170.367265 -72.527965 
L 170.348815 -72.472846 
L 170.329493 -72.418027 
L 170.309303 -72.363522 
L 170.288251 -72.309343 
L 170.266343 -72.255506 
L 170.243582 -72.202023 
L 170.219977 -72.148908 
L 170.195531 -72.096174 
L 170.170252 -72.043834 
L 170.144145 -71.991902 
L 170.117218 -71.940391 
L 170.089477 -71.889314 
L 170.060929 -71.838683 
L 170.031582 -71.788511 
L 170.001442 -71.738812 
L 169.970517 -71.689597 
L 169.938816 -71.640878 
L 169.906345 -71.592669 
L 169.873114 -71.544981 
L 169.83913 -71.497826 
L 169.804402 -71.451217 
L 169.768939 -71.405164 
L 169.73275 -71.35968 
L 169.695844 -71.314776 
L 169.65823 -71.270462 
L 169.619918 -71.226752 
L 169.580917 -71.183654 
L 169.541237 -71.141181 
L 169.500888 -71.099343 
L 169.459881 -71.05815 
L 169.418225 -71.017613 
L 169.375931 -70.977742 
L 169.33301 -70.938547 
L 169.289473 -70.900037 
L 169.24533 -70.862224 
L 169.200592 -70.825116 
L 169.155272 -70.788722 
L 169.109379 -70.753051 
L 169.062927 -70.718114 
L 169.015926 -70.683918 
L 168.968388 -70.650471 
L 168.920326 -70.617784 
L 168.871752 -70.585863 
L 168.822676 -70.554716 
L 168.773113 -70.524352 
L 168.723075 -70.494779 
L 168.672573 -70.466003 
L 168.621621 -70.438031 
L 168.570232 -70.410872 
L 168.518419 -70.384532 
L 168.466194 -70.359017 
L 168.413571 -70.334333 
L 168.360562 -70.310488 
L 168.307182 -70.287487 
L 168.253444 -70.265336 
L 168.199362 -70.24404 
L 168.144948 -70.223604 
L 168.090217 -70.204035 
L 168.035182 -70.185336 
L 167.979857 -70.167513 
L 167.924257 -70.15057 
L 167.868395 -70.134512 
L 167.812285 -70.119341 
L 167.755941 -70.105063 
L 167.699378 -70.091681 
L 167.64261 -70.079197 
L 167.585651 -70.067616 
L 167.528515 -70.05694 
L 167.471217 -70.047172 
L 167.413771 -70.038315 
L 167.356192 -70.030369 
L 167.298495 -70.023339 
L 167.240693 -70.017224 
L 167.182801 -70.012028 
L 167.146064 -70.009024 
L 167.111065 -70.006195 
L 167.079762 -70.003574 
L 167.043036 -70.000496 
L 167.038069 -70.000083 
L 167.001156 -69.99704 
L 166.99279 -69.99636 
L 166.96348 -69.994011 
L 166.934111 -69.991534 
L 166.920109 -69.99038 
L 166.892701 -69.988174 
L 166.865259 -69.98582 
L 166.852186 -69.984722 
L 166.820392 -69.982108 
L 166.788522 -69.979395 
L 166.766038 -69.977551 
L 166.73468 -69.975075 
L 166.709373 -69.972996 
L 166.678131 -69.970323 
L 166.669027 -69.969556 
L 166.638428 -69.967015 
L 166.607793 -69.964356 
L 166.598959 -69.9636 
L 166.566591 -69.96087 
L 166.534168 -69.958044 
L 166.496567 -69.954766 
L 166.491913 -69.954364 
L 166.454467 -69.951148 
L 166.416959 -69.947922 
L 166.378243 -69.944603 
L 166.338815 -69.941239 
L 166.327682 -69.940306 
L 166.299407 -69.937981 
L 166.274234 -69.935778 
L 166.239371 -69.932665 
L 166.228467 -69.931708 
L 166.197122 -69.929004 
L 166.16689 -69.926284 
L 166.130531 -69.92299 
L 166.092968 -69.919573 
L 166.076241 -69.91809 
L 166.047399 -69.915599 
L 166.019436 -69.913039 
L 165.981963 -69.909588 
L 165.942344 -69.905953 
L 165.933298 -69.905134 
L 165.900674 -69.902222 
L 165.868001 -69.8992 
L 165.82724 -69.895452 
L 165.819163 -69.894718 
L 165.780961 -69.891292 
L 165.746964 -69.888233 
L 165.712426 -69.885044 
L 165.70816 -69.884652 
L 165.66962 -69.881139 
L 165.634608 -69.87794 
L 165.599172 -69.874633 
L 165.578201 -69.872736 
L 165.551724 -69.870418 
L 165.525201 -69.867911 
L 165.485595 -69.864172 
L 165.461354 -69.861965 
L 165.436031 -69.859744 
L 165.410651 -69.857322 
L 165.370476 -69.853497 
L 165.329054 -69.849574 
L 165.312095 -69.848008 
L 165.282714 -69.845365 
L 165.253284 -69.842551 
L 165.237269 -69.841055 
L 165.202841 -69.837916 
L 165.170446 -69.834868 
L 165.132732 -69.831275 
L 165.126538 -69.830691 
L 165.086656 -69.82696 
L 165.079238 -69.826274 
L 165.042907 -69.82295 
L 165.009382 -69.819815 
L 164.972139 -69.816274 
L 164.960713 -69.815206 
L 164.930781 -69.812454 
L 164.900786 -69.809527 
L 164.895701 -69.809035 
L 164.855384 -69.805157 
L 164.818964 -69.801837 
L 164.796747 -69.799924 
L 164.774473 -69.797782 
L 164.732264 -69.793762 
L 164.693549 -69.790037 
L 164.681731 -69.788919 
L 164.647722 -69.785758 
L 164.613656 -69.782466 
L 164.606409 -69.781773 
L 164.569563 -69.778286 
L 164.532643 -69.774711 
L 164.490596 -69.770653 
L 164.483168 -69.769944 
L 164.447131 -69.76654 
L 164.411044 -69.763031 
L 164.40394 -69.762348 
L 164.363457 -69.758492 
L 164.32293 -69.754616 
L 164.318647 -69.754209 
L 164.277341 -69.750308 
L 164.272168 -69.749823 
L 164.234675 -69.746335 
L 164.197122 -69.742761 
L 164.162033 -69.73944 
L 164.128882 -69.736148 
L 164.095635 -69.733 
L 164.065789 -69.730311 
L 164.035902 -69.727422 
L 164.030821 -69.726935 
L 163.989033 -69.722955 
L 163.982245 -69.722315 
L 163.944132 -69.718756 
L 163.905969 -69.715114 
L 163.881645 -69.712874 
L 163.842673 -69.709416 
L 163.807294 -69.706218 
L 163.769457 -69.70272 
L 163.732189 -69.699261 
L 163.698972 -69.696099 
L 163.661377 -69.692422 
L 163.644596 -69.69082 
L 163.602662 -69.686913 
L 163.560658 -69.682989 
L 163.555326 -69.682495 
L 163.512806 -69.678586 
L 163.47323 -69.674951 
L 163.433996 -69.671273 
L 163.409608 -69.66907 
L 163.375932 -69.66614 
L 163.346435 -69.663427 
L 163.307803 -69.659783 
L 163.293761 -69.658485 
L 163.257481 -69.655204 
L 163.221319 -69.651802 
L 163.178487 -69.647768 
L 163.149436 -69.645148 
L 163.126981 -69.643214 
L 163.104493 -69.641021 
L 163.083015 -69.63899 
L 163.039838 -69.635035 
L 163.034959 -69.634591 
L 162.993215 -69.630824 
L 162.95921 -69.627727 
L 162.923747 -69.624346 
L 162.909841 -69.623047 
L 162.866524 -69.619083 
L 162.811002 -69.614427 
L 162.755416 -69.610617 
L 162.699778 -69.607652 
L 162.644102 -69.605534 
L 162.588399 -69.604263 
L 162.532684 -69.60384 
L 161.873279 -69.60384 
L 161.873279 -73.2672 
" style="stroke: #000000; stroke-width: 2"/>
    </defs>
    <g clip-path="url(#p8537b09c30)">
     <use xlink:href="#mdc9b2d31df" x="0" y="345.6" style="fill: #e6e6e6; stroke: #000000; stroke-width: 2"/>
    </g>
   </g>
   <g id="PatchCollection_3">
    <defs>
     <path id="ma4017f5be7" d="M 161.873279 -36.633599 
L 161.873279 -40.296959 
L 221.219712 -40.296959 
L 221.544335 -40.296942 
L 221.866258 -40.297852 
L 222.193453 -40.299224 
L 222.523382 -40.300587 
L 222.534756 -40.300616 
L 222.86163 -40.300952 
L 223.188503 -40.301792 
L 223.192231 -40.301799 
L 223.520291 -40.302309 
L 223.840683 -40.303093 
L 224.162711 -40.30523 
L 224.170992 -40.305275 
L 224.500691 -40.306718 
L 224.514846 -40.306752 
L 224.837321 -40.306917 
L 225.155991 -40.308337 
L 225.481886 -40.310466 
L 225.502242 -40.310542 
L 225.826702 -40.310858 
L 226.145258 -40.31208 
L 226.46905 -40.314366 
L 226.487496 -40.31445 
L 226.804999 -40.315092 
L 227.12249 -40.317849 
L 227.155761 -40.317987 
L 227.485463 -40.317856 
L 227.489425 -40.317852 
L 227.811433 -40.317376 
L 228.133439 -40.318252 
L 228.160118 -40.318227 
L 228.484756 -40.316746 
L 228.798075 -40.316183 
L 229.114785 -40.31757 
L 229.442814 -40.319307 
L 229.457546 -40.319355 
L 229.786692 -40.319774 
L 230.115838 -40.320292 
L 230.120704 -40.320297 
L 230.447404 -40.320377 
L 230.774103 -40.320994 
L 231.096152 -40.321488 
L 231.41691 -40.323546 
L 231.440018 -40.323621 
L 231.758174 -40.323655 
L 232.070769 -40.325659 
L 232.394904 -40.32872 
L 232.448556 -40.328834 
L 232.767508 -40.327175 
L 233.084474 -40.327385 
L 233.409637 -40.327954 
L 233.734028 -40.328973 
L 234.060965 -40.330494 
L 234.080305 -40.330532 
L 234.407993 -40.330326 
L 234.735681 -40.33048 
L 235.056495 -40.330553 
L 235.37641 -40.332333 
L 235.708152 -40.333996 
L 235.732233 -40.334037 
L 236.039083 -40.333557 
L 236.345915 -40.336905 
L 236.377114 -40.337112 
L 236.701883 -40.33789 
L 237.026649 -40.339542 
L 237.049904 -40.339587 
L 237.379606 -40.339171 
L 237.698533 -40.338688 
L 238.016523 -40.340238 
L 238.022819 -40.340264 
L 238.345199 -40.341282 
L 238.667573 -40.343588 
L 238.688514 -40.343678 
L 239.018216 -40.344153 
L 239.027938 -40.344154 
L 239.356855 -40.343754 
L 239.666227 -40.34351 
L 239.976369 -40.346576 
L 240.009385 -40.346753 
L 240.331976 -40.347034 
L 240.654563 -40.348567 
L 240.675379 -40.348607 
L 241.002279 -40.348304 
L 241.329179 -40.3485 
L 241.333823 -40.3485 
L 241.654519 -40.348286 
L 241.975212 -40.349649 
L 241.980271 -40.349667 
L 242.309972 -40.350613 
L 242.346121 -40.350539 
L 242.675815 -40.348231 
L 242.702835 -40.347943 
L 243.021313 -40.343364 
L 243.339813 -40.340732 
L 243.351908 -40.340612 
L 243.681588 -40.336799 
L 243.691772 -40.336667 
L 244.008763 -40.332119 
L 244.312044 -40.329867 
L 244.628011 -40.32989 
L 244.646328 -40.329846 
L 244.976027 -40.328222 
L 244.991654 -40.328111 
L 245.305754 -40.325224 
L 245.619868 -40.32501 
L 245.62517 -40.325002 
L 245.94098 -40.32433 
L 246.256785 -40.326053 
L 246.269868 -40.326101 
L 246.59957 -40.326722 
L 246.60677 -40.326729 
L 246.923857 -40.326703 
L 247.240936 -40.328861 
L 247.256346 -40.328933 
L 247.586047 -40.329791 
L 247.905528 -40.330614 
L 248.224918 -40.333234 
L 248.271168 -40.333321 
L 248.579514 -40.331957 
L 248.887855 -40.334188 
L 248.9216 -40.334276 
L 249.240923 -40.333645 
L 249.560244 -40.334823 
L 249.600297 -40.334752 
L 249.929991 -40.332363 
L 249.955088 -40.332095 
L 250.249539 -40.327944 
L 250.544015 -40.329456 
L 250.561107 -40.329504 
L 250.882046 -40.329654 
L 251.189768 -40.33127 
L 251.506233 -40.335215 
L 251.527565 -40.335419 
L 251.857261 -40.337609 
L 251.863137 -40.337643 
L 252.192792 -40.339304 
L 252.522446 -40.340972 
L 252.546116 -40.341016 
L 252.874933 -40.340555 
L 253.20375 -40.340254 
L 253.225974 -40.340166 
L 253.534513 -40.338012 
L 253.843056 -40.339421 
L 253.863164 -40.339457 
L 254.184747 -40.339161 
L 254.506327 -40.34029 
L 254.533184 -40.340285 
L 254.862884 -40.339026 
L 254.88607 -40.338864 
L 255.215755 -40.335518 
L 255.523054 -40.332382 
L 255.83017 -40.333035 
L 255.856499 -40.332996 
L 256.172659 -40.331396 
L 256.488822 -40.332133 
L 256.519823 -40.332074 
L 256.849519 -40.330053 
L 256.874929 -40.329809 
L 257.204603 -40.3255 
L 257.262715 -40.32428 
L 257.3208 -40.322137 
L 257.378843 -40.319074 
L 257.436831 -40.315089 
L 257.494749 -40.310185 
L 257.552581 -40.304363 
L 257.610313 -40.297624 
L 257.667932 -40.28997 
L 257.725422 -40.281403 
L 257.782768 -40.271925 
L 257.839957 -40.261538 
L 257.896974 -40.250245 
L 257.953805 -40.238048 
L 258.010435 -40.224952 
L 258.06685 -40.210959 
L 258.123035 -40.196072 
L 258.178978 -40.180296 
L 258.234663 -40.163634 
L 258.290077 -40.146091 
L 258.345206 -40.127671 
L 258.400035 -40.108378 
L 258.454552 -40.088218 
L 258.508741 -40.067196 
L 258.562591 -40.045317 
L 258.616086 -40.022585 
L 258.669214 -39.999008 
L 258.721962 -39.974591 
L 258.774315 -39.949341 
L 258.826261 -39.923262 
L 258.877787 -39.896363 
L 258.928879 -39.86865 
L 258.979525 -39.840129 
L 259.029713 -39.810809 
L 259.079429 -39.780696 
L 259.128661 -39.749798 
L 259.177396 -39.718123 
L 259.225623 -39.685679 
L 259.273329 -39.652473 
L 259.320502 -39.618515 
L 259.36713 -39.583812 
L 259.413202 -39.548375 
L 259.458706 -39.51221 
L 259.503631 -39.475328 
L 259.547964 -39.437739 
L 259.591696 -39.39945 
L 259.634814 -39.360472 
L 259.677309 -39.320816 
L 259.719169 -39.28049 
L 259.760385 -39.239505 
L 259.800944 -39.197871 
L 259.840838 -39.155599 
L 259.880057 -39.112699 
L 259.918589 -39.069182 
L 259.956427 -39.02506 
L 259.993559 -38.980342 
L 260.029978 -38.935042 
L 260.065673 -38.889169 
L 260.100636 -38.842735 
L 260.134857 -38.795753 
L 260.168329 -38.748234 
L 260.201043 -38.700189 
L 260.232991 -38.651632 
L 260.264164 -38.602573 
L 260.294555 -38.553027 
L 260.324155 -38.503004 
L 260.352959 -38.452518 
L 260.380958 -38.401582 
L 260.408145 -38.350207 
L 260.434513 -38.298408 
L 260.460057 -38.246197 
L 260.484769 -38.193587 
L 260.508643 -38.140592 
L 260.531673 -38.087225 
L 260.553853 -38.033499 
L 260.575179 -37.979427 
L 260.595643 -37.925025 
L 260.615242 -37.870304 
L 260.633971 -37.815279 
L 260.651824 -37.759965 
L 260.668797 -37.704373 
L 260.684886 -37.64852 
L 260.700087 -37.592418 
L 260.714396 -37.536082 
L 260.727809 -37.479527 
L 260.740323 -37.422765 
L 260.751935 -37.365812 
L 260.762642 -37.308682 
L 260.772441 -37.25139 
L 260.78133 -37.193949 
L 260.789306 -37.136374 
L 260.796368 -37.07868 
L 260.802514 -37.020882 
L 260.807742 -36.962993 
L 260.812051 -36.905028 
L 260.815439 -36.847002 
L 260.817907 -36.78893 
L 260.819453 -36.730826 
L 260.820076 -36.672705 
L 260.819778 -36.614581 
L 260.818557 -36.556469 
L 260.816415 -36.498384 
L 260.813351 -36.440341 
L 260.809367 -36.382353 
L 260.804463 -36.324435 
L 260.798641 -36.266603 
L 260.791902 -36.20887 
L 260.784248 -36.151252 
L 260.775681 -36.093762 
L 260.766202 -36.036416 
L 260.755815 -35.979227 
L 260.744522 -35.92221 
L 260.732326 -35.865379 
L 260.719229 -35.808749 
L 260.705236 -35.752334 
L 260.69035 -35.696149 
L 260.674573 -35.640206 
L 260.657912 -35.584521 
L 260.640369 -35.529107 
L 260.621948 -35.473978 
L 260.602656 -35.419149 
L 260.582496 -35.364632 
L 260.561474 -35.310442 
L 260.539594 -35.256593 
L 260.516863 -35.203098 
L 260.493286 -35.14997 
L 260.468869 -35.097222 
L 260.443618 -35.044869 
L 260.41754 -34.992923 
L 260.390641 -34.941397 
L 260.362927 -34.890305 
L 260.334407 -34.839659 
L 260.305087 -34.789471 
L 260.274974 -34.739755 
L 260.244076 -34.690523 
L 260.212401 -34.641788 
L 260.179956 -34.593561 
L 260.146751 -34.545855 
L 260.112792 -34.498682 
L 260.07809 -34.452053 
L 260.042652 -34.405982 
L 260.006488 -34.360478 
L 259.969606 -34.315553 
L 259.932016 -34.27122 
L 259.893728 -34.227488 
L 259.85475 -34.184369 
L 259.815093 -34.141875 
L 259.774767 -34.100015 
L 259.733782 -34.058799 
L 259.692148 -34.01824 
L 259.649876 -33.978346 
L 259.606976 -33.939127 
L 259.56346 -33.900595 
L 259.519337 -33.862757 
L 259.47462 -33.825625 
L 259.429319 -33.789206 
L 259.383446 -33.753511 
L 259.337013 -33.718548 
L 259.29003 -33.684326 
L 259.242511 -33.650854 
L 259.194467 -33.618141 
L 259.145909 -33.586193 
L 259.096851 -33.55502 
L 259.047304 -33.524629 
L 258.997282 -33.495029 
L 258.946796 -33.466225 
L 258.895859 -33.438226 
L 258.844485 -33.411039 
L 258.792686 -33.384671 
L 258.740475 -33.359127 
L 258.687865 -33.334415 
L 258.63487 -33.310541 
L 258.581502 -33.287511 
L 258.527776 -33.265331 
L 258.473705 -33.244005 
L 258.419302 -33.223541 
L 258.364582 -33.203942 
L 258.309557 -33.185213 
L 258.254242 -33.16736 
L 258.198651 -33.150387 
L 258.142797 -33.134298 
L 258.086696 -33.119097 
L 258.03036 -33.104788 
L 257.973804 -33.091375 
L 257.917043 -33.078861 
L 257.86009 -33.067249 
L 257.80296 -33.056542 
L 257.745667 -33.046743 
L 257.688227 -33.037854 
L 257.630652 -33.029878 
L 257.572958 -33.022816 
L 257.515159 -33.01667 
L 257.45727 -33.011442 
L 257.399306 -33.007133 
L 257.34128 -33.003745 
L 257.283208 -33.001277 
L 257.225104 -32.999731 
L 257.166982 -32.999108 
L 257.108859 -32.999406 
L 256.791889 -33.003548 
L 256.490398 -33.005397 
L 256.176198 -33.004665 
L 256.149121 -33.004702 
L 255.832587 -33.006304 
L 255.51605 -33.00563 
L 255.47088 -33.005813 
L 255.141294 -33.009176 
L 254.823299 -33.012404 
L 254.518621 -33.013568 
L 254.202349 -33.012457 
L 254.186109 -33.012436 
L 253.866461 -33.012731 
L 253.546816 -33.011271 
L 253.504505 -33.011322 
L 253.185922 -33.013547 
L 252.867333 -33.013839 
L 252.547695 -33.014286 
L 252.229832 -33.012677 
L 251.902984 -33.011031 
L 251.586894 -33.008931 
L 251.267883 -33.004955 
L 251.241459 -33.00472 
L 250.911761 -33.002989 
L 250.894234 -33.002939 
L 250.573078 -33.002789 
L 250.251926 -33.00114 
L 250.181485 -33.001456 
L 249.864364 -33.005926 
L 249.567245 -33.008079 
L 249.257572 -33.006936 
L 249.236813 -33.006919 
L 248.923985 -33.007537 
L 248.611164 -33.005274 
L 248.568457 -33.005214 
L 248.261883 -33.00657 
L 247.955316 -33.004056 
L 247.934715 -33.003945 
L 247.605054 -33.003095 
L 247.283098 -33.002258 
L 246.961107 -33.000067 
L 246.935876 -32.999982 
L 246.609774 -33.000008 
L 246.290214 -32.999406 
L 245.967058 -32.997643 
L 245.939273 -32.997597 
L 245.612223 -32.998293 
L 245.285172 -32.998516 
L 245.253995 -32.99867 
L 244.93212 -33.001629 
L 244.619394 -33.00317 
L 244.298851 -33.003146 
L 244.27138 -33.003247 
L 243.941686 -33.005695 
L 243.916332 -33.005971 
L 243.591755 -33.010628 
L 243.273214 -33.014312 
L 242.949571 -33.016987 
L 242.927189 -33.01724 
L 242.61103 -33.021785 
L 242.31292 -33.023872 
L 242.003824 -33.022985 
L 241.676654 -33.021594 
L 241.65864 -33.021562 
L 241.33126 -33.02178 
L 241.00388 -33.021583 
L 240.998276 -33.021584 
L 240.678982 -33.021881 
L 240.359691 -33.020363 
L 240.345467 -33.020323 
L 240.032274 -33.02005 
L 239.719095 -33.016955 
L 239.680005 -33.016777 
L 239.350303 -33.017037 
L 239.023892 -33.017433 
L 238.709521 -33.016981 
L 238.390298 -33.014697 
L 238.375657 -33.014621 
L 238.049104 -33.01359 
L 237.722554 -33.011998 
L 237.699137 -33.011958 
L 237.369902 -33.012457 
L 237.052293 -33.012858 
L 236.734222 -33.01124 
L 236.724358 -33.011203 
L 236.410257 -33.010451 
L 236.096173 -33.007024 
L 236.05047 -33.00681 
L 235.732809 -33.007307 
L 235.416173 -33.005721 
L 235.087497 -33.003892 
L 235.067933 -33.003835 
L 234.738677 -33.003761 
L 234.409422 -33.003606 
L 234.405393 -33.003606 
L 234.085361 -33.003808 
L 233.765332 -33.00232 
L 233.759808 -33.002298 
L 233.430107 -33.001262 
L 233.425011 -33.00125 
L 233.095309 -33.000673 
L 233.091329 -33.000668 
L 232.761626 -33.000449 
L 232.740134 -33.000498 
L 232.437263 -33.002074 
L 232.134401 -32.999214 
L 232.123294 -32.999126 
L 231.793598 -32.997012 
L 231.770505 -32.996937 
L 231.452357 -32.996903 
L 231.134215 -32.994862 
L 231.11634 -32.994791 
L 230.78728 -32.994285 
L 230.45822 -32.993665 
L 230.452216 -32.993658 
L 230.124946 -32.993577 
L 229.797677 -32.993062 
L 229.474229 -32.99265 
L 229.151897 -32.990944 
L 228.818861 -32.989483 
L 228.796219 -32.989454 
L 228.466517 -32.990047 
L 228.456394 -32.990079 
L 228.140034 -32.991522 
L 227.823672 -32.990662 
L 227.808284 -32.990652 
L 227.480563 -32.991137 
L 227.169477 -32.991261 
L 226.856422 -32.988543 
L 226.832024 -32.988412 
L 226.511545 -32.987763 
L 226.191074 -32.985501 
L 226.17927 -32.985437 
L 225.84957 -32.984172 
L 225.839086 -32.984147 
L 225.519562 -32.983835 
L 225.200045 -32.981748 
L 225.192442 -32.981707 
L 224.862743 -32.980237 
L 224.848288 -32.980201 
L 224.525663 -32.980037 
L 224.207182 -32.978644 
L 223.881628 -32.976484 
L 223.866292 -32.976414 
L 223.53659 -32.975607 
L 223.205469 -32.975091 
L 222.877632 -32.974248 
L 222.871976 -32.974238 
L 222.54796 -32.973906 
L 222.224062 -32.972568 
L 221.894477 -32.971186 
L 221.889468 -32.971168 
L 221.559767 -32.970236 
L 221.549221 -32.970222 
L 221.219615 -32.970239 
L 161.873279 -32.970239 
L 161.873279 -36.633599 
" style="stroke: #000000; stroke-width: 2"/>
    </defs>
    <g clip-path="url(#p8537b09c30)">
     <use xlink:href="#ma4017f5be7" x="0" y="345.6" style="fill: #e6e6e6; stroke: #000000; stroke-width: 2"/>
    </g>
   </g>
   <g id="PatchCollection_4">
    <defs>
     <path id="m2f6e818ba4" d="M 161.873279 -73.2672 
L 161.873279 -76.93056 
L 162.532684 -76.93056 
L 162.590807 -76.930099 
L 162.648915 -76.928715 
L 162.706994 -76.92641 
L 162.765029 -76.923184 
L 162.823005 -76.919038 
L 162.880909 -76.913972 
L 162.938724 -76.907988 
L 162.996438 -76.901087 
L 163.054035 -76.893272 
L 163.1115 -76.884544 
L 163.16882 -76.874905 
L 163.22598 -76.864358 
L 163.282965 -76.852905 
L 163.339761 -76.84055 
L 163.396354 -76.827295 
L 163.45273 -76.813144 
L 163.508874 -76.7981 
L 163.564772 -76.782168 
L 163.62041 -76.76535 
L 163.675775 -76.747652 
L 163.730852 -76.729078 
L 163.785627 -76.709632 
L 163.840087 -76.68932 
L 163.894218 -76.668146 
L 163.948006 -76.646115 
L 164.001437 -76.623235 
L 164.054499 -76.599509 
L 164.107178 -76.574945 
L 164.15946 -76.549547 
L 164.211333 -76.523324 
L 164.262783 -76.496281 
L 164.313798 -76.468425 
L 164.364364 -76.439762 
L 164.414469 -76.410302 
L 164.464101 -76.38005 
L 164.513246 -76.349014 
L 164.561893 -76.317203 
L 164.610029 -76.284624 
L 164.657642 -76.251285 
L 164.704719 -76.217195 
L 164.751251 -76.182362 
L 164.797223 -76.146795 
L 164.842626 -76.110504 
L 164.887447 -76.073496 
L 164.931675 -76.035782 
L 164.975299 -75.997372 
L 165.018308 -75.958274 
L 165.060692 -75.918498 
L 165.102439 -75.878055 
L 165.14354 -75.836955 
L 165.183983 -75.795208 
L 165.223758 -75.752824 
L 165.262856 -75.709815 
L 165.301267 -75.66619 
L 165.338981 -75.621962 
L 165.375988 -75.577141 
L 165.41228 -75.531739 
L 165.447846 -75.485766 
L 165.482679 -75.439235 
L 165.516769 -75.392157 
L 165.550108 -75.344544 
L 165.582687 -75.296408 
L 165.614499 -75.247762 
L 165.645534 -75.198616 
L 165.675786 -75.148985 
L 165.705247 -75.09888 
L 165.733909 -75.048313 
L 165.761765 -74.997299 
L 165.788808 -74.945848 
L 165.815032 -74.893976 
L 165.840429 -74.841693 
L 165.864994 -74.789014 
L 165.888719 -74.735953 
L 165.9116 -74.682521 
L 165.93363 -74.628733 
L 165.954804 -74.574602 
L 165.975117 -74.520143 
L 165.994562 -74.465367 
L 166.013137 -74.41029 
L 166.030835 -74.354926 
L 166.047652 -74.299287 
L 166.063585 -74.243389 
L 166.078629 -74.187245 
L 166.09278 -74.130869 
L 166.106035 -74.074276 
L 166.11839 -74.01748 
L 166.129843 -73.960495 
L 166.14039 -73.903335 
L 166.150028 -73.846016 
L 166.158757 -73.78855 
L 166.166572 -73.730953 
L 166.173472 -73.67324 
L 166.179456 -73.615424 
L 166.184522 -73.557521 
L 166.188669 -73.499544 
L 166.191895 -73.441509 
L 166.1942 -73.38343 
L 166.195583 -73.325322 
L 166.196044 -73.2672 
L 166.195583 -73.209077 
L 166.1942 -73.150969 
L 166.191895 -73.09289 
L 166.188669 -73.034855 
L 166.184522 -72.976879 
L 166.179456 -72.918975 
L 166.173472 -72.861159 
L 166.166572 -72.803446 
L 166.158757 -72.745849 
L 166.150028 -72.688384 
L 166.14039 -72.631064 
L 166.129843 -72.573904 
L 166.11839 -72.516919 
L 166.106035 -72.460123 
L 166.09278 -72.40353 
L 166.078629 -72.347154 
L 166.063585 -72.29101 
L 166.047652 -72.235112 
L 166.030835 -72.179473 
L 166.013137 -72.124109 
L 165.994562 -72.069032 
L 165.975117 -72.014257 
L 165.954804 -71.959797 
L 165.93363 -71.905666 
L 165.9116 -71.851878 
L 165.888719 -71.798447 
L 165.864994 -71.745385 
L 165.840429 -71.692706 
L 165.815032 -71.640424 
L 165.788808 -71.588551 
L 165.761765 -71.537101 
L 165.733909 -71.486086 
L 165.705247 -71.43552 
L 165.675786 -71.385414 
L 165.645534 -71.335783 
L 165.614499 -71.286638 
L 165.582687 -71.237991 
L 165.550108 -71.189855 
L 165.516769 -71.142242 
L 165.482679 -71.095164 
L 165.447846 -71.048633 
L 165.41228 -71.002661 
L 165.375988 -70.957258 
L 165.338981 -70.912437 
L 165.301267 -70.868209 
L 165.262856 -70.824585 
L 165.223758 -70.781575 
L 165.183983 -70.739192 
L 165.14354 -70.697445 
L 165.102439 -70.656344 
L 165.060692 -70.615901 
L 165.018308 -70.576126 
L 164.975299 -70.537028 
L 164.931675 -70.498617 
L 164.887447 -70.460903 
L 164.842626 -70.423896 
L 164.797223 -70.387604 
L 164.751251 -70.352038 
L 164.704719 -70.317205 
L 164.657642 -70.283115 
L 164.610029 -70.249776 
L 164.561893 -70.217197 
L 164.513246 -70.185385 
L 164.464101 -70.154349 
L 164.414469 -70.124097 
L 164.364364 -70.094637 
L 164.313798 -70.065975 
L 164.262783 -70.038119 
L 164.211333 -70.011075 
L 164.15946 -69.984852 
L 164.107178 -69.959455 
L 164.054499 -69.93489 
L 164.001437 -69.911165 
L 163.948006 -69.888284 
L 163.894218 -69.866254 
L 163.840087 -69.84508 
L 163.785627 -69.824767 
L 163.730852 -69.805321 
L 163.675775 -69.786747 
L 163.62041 -69.769049 
L 163.564772 -69.752231 
L 163.508874 -69.736299 
L 163.45273 -69.721255 
L 163.396354 -69.707104 
L 163.339761 -69.693849 
L 163.282965 -69.681494 
L 163.22598 -69.670041 
L 163.16882 -69.659494 
L 163.1115 -69.649855 
L 163.054035 -69.641127 
L 162.996438 -69.633312 
L 162.938724 -69.626412 
L 162.880909 -69.620428 
L 162.823005 -69.615362 
L 162.765029 -69.611215 
L 162.706994 -69.607989 
L 162.648915 -69.605684 
L 162.590807 -69.604301 
L 162.532684 -69.60384 
L 161.873279 -69.60384 
L 161.873279 -73.2672 
" style="stroke: #000000; stroke-width: 2"/>
    </defs>
    <g clip-path="url(#p8537b09c30)">
     <use xlink:href="#m2f6e818ba4" x="0" y="345.6" style="fill: #8e8e8e; stroke: #000000; stroke-width: 2"/>
    </g>
   </g>
   <g id="PatchCollection_5">
    <defs>
     <path id="m98d3587412" d="M 161.873279 -36.633599 
L 161.873279 -40.296959 
L 221.219712 -40.296959 
L 221.277835 -40.296498 
L 221.335943 -40.295115 
L 221.394022 -40.29281 
L 221.452057 -40.289584 
L 221.510033 -40.285437 
L 221.567937 -40.280371 
L 221.625752 -40.274387 
L 221.683466 -40.267487 
L 221.741063 -40.259672 
L 221.798528 -40.250943 
L 221.855848 -40.241305 
L 221.913007 -40.230758 
L 221.969993 -40.219305 
L 222.026789 -40.20695 
L 222.083382 -40.193695 
L 222.139758 -40.179544 
L 222.195902 -40.1645 
L 222.2518 -40.148567 
L 222.307438 -40.13175 
L 222.362803 -40.114052 
L 222.41788 -40.095478 
L 222.472655 -40.076032 
L 222.527115 -40.055719 
L 222.581245 -40.034545 
L 222.635033 -40.012515 
L 222.688465 -39.989634 
L 222.741527 -39.965909 
L 222.794206 -39.941344 
L 222.846488 -39.915947 
L 222.898361 -39.889724 
L 222.949811 -39.86268 
L 223.000826 -39.834824 
L 223.051392 -39.806162 
L 223.101497 -39.776701 
L 223.151129 -39.746449 
L 223.200274 -39.715414 
L 223.248921 -39.683602 
L 223.297056 -39.651023 
L 223.344669 -39.617684 
L 223.391747 -39.583594 
L 223.438278 -39.548761 
L 223.484251 -39.513195 
L 223.529653 -39.476903 
L 223.574474 -39.439896 
L 223.618703 -39.402182 
L 223.662327 -39.363771 
L 223.705336 -39.324673 
L 223.74772 -39.284898 
L 223.789467 -39.244455 
L 223.830567 -39.203354 
L 223.87101 -39.161607 
L 223.910786 -39.119224 
L 223.949884 -39.076214 
L 223.988295 -39.03259 
L 224.026009 -38.988362 
L 224.063016 -38.943541 
L 224.099308 -38.898138 
L 224.134874 -38.852166 
L 224.169707 -38.805634 
L 224.203797 -38.758557 
L 224.237136 -38.710944 
L 224.269715 -38.662808 
L 224.301527 -38.614161 
L 224.332562 -38.565016 
L 224.362814 -38.515384 
L 224.392275 -38.465279 
L 224.420937 -38.414713 
L 224.448793 -38.363698 
L 224.475836 -38.312248 
L 224.50206 -38.260375 
L 224.527457 -38.208093 
L 224.552022 -38.155414 
L 224.575747 -38.102352 
L 224.598628 -38.048921 
L 224.620658 -37.995133 
L 224.641832 -37.941002 
L 224.662144 -37.886542 
L 224.68159 -37.831767 
L 224.700165 -37.77669 
L 224.717863 -37.721326 
L 224.73468 -37.665687 
L 224.750613 -37.609789 
L 224.765657 -37.553645 
L 224.779808 -37.497269 
L 224.793063 -37.440676 
L 224.805418 -37.38388 
L 224.81687 -37.326895 
L 224.827417 -37.269735 
L 224.837056 -37.212415 
L 224.845784 -37.15495 
L 224.8536 -37.097353 
L 224.8605 -37.039639 
L 224.866484 -36.981824 
L 224.87155 -36.92392 
L 224.875697 -36.865944 
L 224.878923 -36.807909 
L 224.881228 -36.74983 
L 224.882611 -36.691722 
L 224.883072 -36.633599 
L 224.882611 -36.575477 
L 224.881228 -36.517368 
L 224.878923 -36.45929 
L 224.875697 -36.401255 
L 224.87155 -36.343278 
L 224.866484 -36.285375 
L 224.8605 -36.227559 
L 224.8536 -36.169846 
L 224.845784 -36.112249 
L 224.837056 -36.054783 
L 224.827417 -35.997463 
L 224.81687 -35.940304 
L 224.805418 -35.883319 
L 224.793063 -35.826522 
L 224.779808 -35.769929 
L 224.765657 -35.713554 
L 224.750613 -35.65741 
L 224.73468 -35.601511 
L 224.717863 -35.545873 
L 224.700165 -35.490508 
L 224.68159 -35.435432 
L 224.662144 -35.380656 
L 224.641832 -35.326197 
L 224.620658 -35.272066 
L 224.598628 -35.218278 
L 224.575747 -35.164846 
L 224.552022 -35.111785 
L 224.527457 -35.059106 
L 224.50206 -35.006823 
L 224.475836 -34.954951 
L 224.448793 -34.9035 
L 224.420937 -34.852486 
L 224.392275 -34.801919 
L 224.362814 -34.751814 
L 224.332562 -34.702183 
L 224.301527 -34.653037 
L 224.269715 -34.604391 
L 224.237136 -34.556255 
L 224.203797 -34.508642 
L 224.169707 -34.461564 
L 224.134874 -34.415033 
L 224.099308 -34.36906 
L 224.063016 -34.323658 
L 224.026009 -34.278837 
L 223.988295 -34.234609 
L 223.949884 -34.190984 
L 223.910786 -34.147975 
L 223.87101 -34.105591 
L 223.830567 -34.063844 
L 223.789467 -34.022744 
L 223.74772 -33.982301 
L 223.705336 -33.942525 
L 223.662327 -33.903427 
L 223.618703 -33.865016 
L 223.574474 -33.827303 
L 223.529653 -33.790295 
L 223.484251 -33.754004 
L 223.438278 -33.718437 
L 223.391747 -33.683604 
L 223.344669 -33.649514 
L 223.297056 -33.616175 
L 223.248921 -33.583596 
L 223.200274 -33.551785 
L 223.151129 -33.520749 
L 223.101497 -33.490497 
L 223.051392 -33.461036 
L 223.000826 -33.432374 
L 222.949811 -33.404518 
L 222.898361 -33.377475 
L 222.846488 -33.351251 
L 222.794206 -33.325854 
L 222.741527 -33.30129 
L 222.688465 -33.277564 
L 222.635033 -33.254683 
L 222.581245 -33.232653 
L 222.527115 -33.211479 
L 222.472655 -33.191167 
L 222.41788 -33.171721 
L 222.362803 -33.153147 
L 222.307438 -33.135449 
L 222.2518 -33.118631 
L 222.195902 -33.102698 
L 222.139758 -33.087655 
L 222.083382 -33.073504 
L 222.026789 -33.060249 
L 221.969993 -33.047894 
L 221.913007 -33.036441 
L 221.855848 -33.025894 
L 221.798528 -33.016255 
L 221.741063 -33.007527 
L 221.683466 -32.999712 
L 221.625752 -32.992811 
L 221.567937 -32.986827 
L 221.510033 -32.981761 
L 221.452057 -32.977615 
L 221.394022 -32.974389 
L 221.335943 -32.972084 
L 221.277835 -32.9707 
L 221.219712 -32.970239 
L 161.873279 -32.970239 
L 161.873279 -36.633599 
" style="stroke: #000000; stroke-width: 2"/>
    </defs>
    <g clip-path="url(#p8537b09c30)">
     <use xlink:href="#m98d3587412" x="0" y="345.6" style="fill: #8e8e8e; stroke: #000000; stroke-width: 2"/>
    </g>
   </g>
   <g id="line2d_1">
    <path d="M 161.873279 345.600001 
L 461.8 345.600001 
" clip-path="url(#p8537b09c30)" style="fill: none; stroke: #000000; stroke-width: 8; stroke-linecap: round"/>
   </g>
   <g id="line2d_2">
    <path clip-path="url(#p8537b09c30)" style="fill: none; stroke: #000000; stroke-width: 8; stroke-linecap: round"/>
   </g>
   <g id="line2d_3">
    <path clip-path="url(#p8537b09c30)" style="fill: none; stroke: #000000; stroke-width: 8; stroke-linecap: round"/>
   </g>
   <g id="line2d_4">
    <path d="M 461.8 235.6992 
L 161.873279 235.6992 
" clip-path="url(#p8537b09c30)" style="fill: none; stroke: #000000; stroke-width: 8; stroke-linecap: round"/>
   </g>
   <g id="line2d_5">
    <path d="M 161.873279 235.6992 
L 161.873279 272.3328 
" clip-path="url(#p8537b09c30)" style="fill: none; stroke: #000000; stroke-width: 8; stroke-linecap: round"/>
   </g>
   <g id="line2d_6">
    <path d="M 161.873279 272.3328 
L 161.873279 308.966401 
" clip-path="url(#p8537b09c30)" style="fill: none; stroke: #000000; stroke-width: 8; stroke-linecap: round"/>
   </g>
   <g id="line2d_7">
    <path d="M 161.873279 308.966401 
L 161.873279 345.600001 
" clip-path="url(#p8537b09c30)" style="fill: none; stroke: #000000; stroke-width: 8; stroke-linecap: round"/>
   </g>
  </g>
 </g>
 <defs>
  <clipPath id="p8537b09c30">
   <rect x="161.873279" y="235.6992" width="115.395841" height="109.9008"/>
  </clipPath>
 </defs>
</svg>
